<svg id="Layer_1" enable-background="new 0 0 512 512" height="512" viewBox="0 0 512 512" width="512" xmlns="http://www.w3.org/2000/svg"><g><path d="m203.688 176h-3.69c-4.42 0-8 3.58-8 8s3.58 8 8 8h112c4.42 0 8-3.58 8-8s-3.58-8-8-8h-3.69l17-38.25c7.063-15.918-4.605-33.75-21.93-33.75h-23.38v-24h8c13.23 0 24-10.77 24-24s-10.77-24-24-24h-8v-8c0-13.23-10.77-24-24-24s-24 10.77-24 24v8h-8c-13.23 0-24 10.77-24 24s10.77 24 24 24h8v24h-23.38c-17.345 0-28.984 17.853-21.93 33.75z"/><path d="m295.998 256c13.23 0 24-10.77 24-24s-10.77-24-24-24h-80c-13.23 0-24 10.77-24 24s10.77 24 24 24z"/><path d="m176.373 384h159.247c2.195 0 3.647-2.286 2.713-4.272-20.461-43.487-25.927-77.65-30.303-106.149-.266-1.73-1.943-2.83-3.655-2.462-2.701.581-5.504.884-8.378.884-72.991 0-82.452.468-88.446-.851-1.688-.372-3.332.768-3.59 2.477-3.687 24.412-8.819 60.392-30.3 106.098-.933 1.987.515 4.275 2.712 4.275z"/><path d="m356.684 290.488c-2.98 19.696-7.433 39.175-13.34 58.316-.197.639-.178 1.326.061 1.95 1.985 5.205 4.101 10.36 6.366 15.464.481 1.084 1.562 1.781 2.748 1.781h106.313c2.074 0 3.51-2.05 2.821-4.007-8.41-23.876-14.547-48.467-18.34-73.506-.224-1.477-1.484-2.566-2.978-2.552-12.774.119-67.89.122-80.672.001-1.495-.013-2.756 1.076-2.979 2.553z"/><path d="m124.416 495.737c-1.562-.108-2.607 1.522-1.91 2.924 3.93 7.896 12.086 13.339 21.492 13.339h224c9.403 0 17.565-5.441 21.499-13.34.732-1.47-.451-3.094-2.081-2.901-8.291.986-254.91.538-263-.022z"/><path d="m509.788 434.48c-.525-.596-.434-.467-13.79-10.48-9.984-7.493-15.957-19.395-16-31.866-.015-4.471-3.529-8.134-8-8.134h-113.72l.005.01c.323.628.888 1.086 1.556 1.316 9.527 3.288 16.159 12.351 16.159 22.674 0 14.545 5.923 27.958 15.6 37.66l1.461 1.461c.563.563 1.326.879 2.121.879h108.817c7.064 0 10.602-8.491 5.791-13.52z"/><path d="m390.738 467.7c-3.643-5.828-30.74-22.477-30.74-59.7 0-4.42-3.58-8-8-8h-192c-4.42 0-8 3.58-8 8 0 16.11-6.15 28.448-6.23 28.69-10.571 23.261-26.584 26.989-25.73 36.094.107 1.097.494 2.348 1.166 3.424.922 1.484 1.951 2.122 2.365 2.452 2.813 1.874-2.502 1.34 92.43 1.34 178.566 0 169.319.462 171.81-.97 2.137-.88 4.56-4.269 4.15-7.82-.001-1.403-.996-3.21-1.221-3.51z"/><path d="m359.998 272h80c13.23 0 24-10.77 24-24s-10.77-24-24-24h-11.189c16.277-9.807 27.189-27.65 27.189-48 0-30.88-25.12-56-56-56s-56 25.12-56 56c0 20.35 10.912 38.193 27.189 48h-11.189c-13.23 0-24 10.77-24 24s10.77 24 24 24z"/><path d="m68.684 290.485c-3.668 24.243-9.686 48.9-18.351 73.507-.689 1.956.746 4.007 2.82 4.007h106.31c1.188 0 2.272-.699 2.753-1.785 2.258-5.096 4.38-10.254 6.365-15.448.239-.626.259-1.314.062-1.955-5.879-19.079-10.336-38.557-13.329-58.323-.224-1.477-1.484-2.566-2.978-2.552-12.781.121-67.896.118-80.672-.001-1.496-.014-2.757 1.073-2.98 2.55z"/><path d="m153.718 384h-113.72c-4.466 0-7.987 3.655-8 8.12-.038 12.567-6.021 24.386-16 31.88-13.932 10.446-13.011 9.723-13.53 10.22-.817.726-1.708 2.035-2.14 3.511-1.523 5.312 2.469 10.269 7.67 10.269h108.809c.801 0 1.574-.321 2.136-.892 7.95-8.079 10.284-12.327 12.985-18.679 5.937-14.327 2.589-20.483 5.45-28.43 2.427-6.852 7.887-12.29 14.769-14.67.674-.233 1.244-.695 1.571-1.329z"/><path d="m102.684 464c-77.007.005-93.018.234-98.192-.256-1.59-.15-2.698 1.488-1.986 2.918 3.931 7.895 12.087 13.338 21.492 13.338h78.7c1.278 0 2.248-1.188 1.95-2.431-.884-3.683-.871-7.467-.025-11.064.299-1.275-.629-2.505-1.939-2.505z"/><path d="m71.998 272h80c13.23 0 24-10.77 24-24s-10.77-24-24-24h-11.189c16.277-9.807 27.189-27.65 27.189-48 0-30.88-25.12-56-56-56s-56 25.12-56 56c0 20.35 10.912 38.193 27.189 48h-11.189c-13.23 0-24 10.77-24 24s10.77 24 24 24z"/><path d="m409.274 464c77.007.005 93.018.234 98.192-.256 1.59-.15 2.698 1.488 1.986 2.918-3.93 7.895-12.086 13.338-21.492 13.338h-78.7c-1.278 0-2.248-1.188-1.95-2.431.884-3.683.871-7.467.025-11.064-.299-1.275.629-2.505 1.939-2.505z"/></g></svg>