<svg width="601" height="155" viewBox="0 0 601 155" fill="none" xmlns="http://www.w3.org/2000/svg">
<g clip-path="url(#clip0_47_54)">
<ellipse opacity="0.8" cx="50.5" cy="106.5" rx="43.5" ry="41.5" transform="rotate(-10 50.5 106.5)" fill="url(#paint0_linear_47_54)"/>
<ellipse opacity="0.8" cx="63.5" cy="48.5" rx="43.5" ry="41.5" transform="rotate(-10 63.5 48.5)" fill="url(#paint1_linear_47_54)"/>
<ellipse opacity="0.8" cx="106.5" cy="89.5" rx="43.5" ry="41.5" transform="rotate(-10 106.5 89.5)" fill="url(#paint2_linear_47_54)"/>
</g>
<g clip-path="url(#clip1_47_54)">
<path d="M176.839 96V58.1018H184.852V89.3937H201.099V96H176.839ZM224.485 83.8977V67.5764H232.368V96H224.8V90.8371H224.504C223.862 92.5026 222.795 93.8411 221.302 94.8527C219.822 95.8643 218.015 96.3701 215.88 96.3701C213.98 96.3701 212.309 95.9383 210.865 95.0748C209.422 94.2112 208.293 92.9837 207.479 91.3923C206.677 89.8008 206.27 87.8948 206.258 85.6742V67.5764H214.141V84.2678C214.153 85.9456 214.603 87.2718 215.492 88.2464C216.38 89.221 217.57 89.7083 219.063 89.7083C220.013 89.7083 220.901 89.4924 221.728 89.0606C222.554 88.6165 223.221 87.9627 223.726 87.0991C224.245 86.2355 224.497 85.1684 224.485 83.8977ZM251.516 96.5551C248.605 96.5551 246.1 95.9383 244.003 94.7047C241.918 93.4587 240.315 91.7315 239.192 89.5233C238.082 87.315 237.526 84.7737 237.526 81.8992C237.526 78.9878 238.088 76.4341 239.21 74.2382C240.345 72.0299 241.955 70.3089 244.04 69.0753C246.125 67.8293 248.605 67.2063 251.479 67.2063C253.959 67.2063 256.13 67.6566 257.993 68.5571C259.856 69.4577 261.33 70.7222 262.416 72.3506C263.501 73.9791 264.1 75.8913 264.211 78.0872H256.772C256.562 76.6685 256.007 75.5273 255.106 74.6638C254.218 73.7879 253.052 73.3499 251.609 73.3499C250.387 73.3499 249.32 73.683 248.407 74.3492C247.507 75.003 246.804 75.9591 246.298 77.2175C245.792 78.4758 245.539 79.9994 245.539 81.7882C245.539 83.6017 245.786 85.1437 246.279 86.4144C246.785 87.6851 247.494 88.6535 248.407 89.3197C249.32 89.9859 250.387 90.319 251.609 90.319C252.509 90.319 253.317 90.1339 254.033 89.7638C254.761 89.3937 255.359 88.8571 255.828 88.1539C256.309 87.4384 256.624 86.581 256.772 85.5817H264.211C264.087 87.753 263.495 89.6651 262.434 91.3182C261.386 92.959 259.936 94.242 258.085 95.1673C256.235 96.0925 254.045 96.5551 251.516 96.5551ZM277.363 96.5366C275.55 96.5366 273.933 96.2221 272.515 95.5929C271.096 94.9514 269.973 94.0076 269.147 92.7616C268.333 91.5033 267.926 89.9365 267.926 88.0614C267.926 86.4823 268.215 85.1561 268.795 84.0828C269.375 83.0095 270.165 82.1459 271.164 81.4921C272.163 80.8383 273.298 80.3448 274.569 80.0117C275.852 79.6786 277.197 79.4442 278.603 79.3085C280.256 79.1358 281.588 78.9754 282.6 78.8274C283.612 78.667 284.346 78.4326 284.802 78.1242C285.259 77.8158 285.487 77.3593 285.487 76.7548V76.6438C285.487 75.4718 285.117 74.5651 284.376 73.9236C283.649 73.2821 282.612 72.9613 281.268 72.9613C279.849 72.9613 278.72 73.2759 277.881 73.9051C277.042 74.5219 276.487 75.2991 276.216 76.2367L268.925 75.6445C269.295 73.9174 270.023 72.4247 271.108 71.1663C272.194 69.8957 273.594 68.9211 275.309 68.2425C277.036 67.5517 279.035 67.2063 281.305 67.2063C282.884 67.2063 284.395 67.3913 285.838 67.7614C287.294 68.1315 288.583 68.7052 289.706 69.4824C290.841 70.2596 291.735 71.2589 292.389 72.4802C293.043 73.6892 293.37 75.1387 293.37 76.8288V96H285.894V92.0584H285.672C285.215 92.9467 284.605 93.7301 283.84 94.4086C283.075 95.0748 282.156 95.5991 281.083 95.9815C280.009 96.3516 278.769 96.5366 277.363 96.5366ZM279.621 91.0962C280.78 91.0962 281.804 90.868 282.692 90.4115C283.581 89.9427 284.278 89.3135 284.784 88.524C285.289 87.7344 285.542 86.84 285.542 85.8408V82.8245C285.296 82.9848 284.956 83.1329 284.524 83.2686C284.105 83.3919 283.63 83.5091 283.1 83.6202C282.569 83.7189 282.039 83.8114 281.508 83.8977C280.978 83.9718 280.497 84.0396 280.065 84.1013C279.14 84.237 278.331 84.4529 277.641 84.749C276.95 85.0451 276.413 85.446 276.031 85.9518C275.648 86.4453 275.457 87.0621 275.457 87.8023C275.457 88.8756 275.846 89.696 276.623 90.2635C277.412 90.8186 278.412 91.0962 279.621 91.0962ZM323.135 75.6815L315.918 76.1257C315.795 75.5088 315.53 74.9537 315.122 74.4602C314.715 73.9544 314.179 73.5535 313.513 73.2574C312.859 72.949 312.075 72.7948 311.162 72.7948C309.941 72.7948 308.911 73.0538 308.072 73.572C307.233 74.0778 306.814 74.7563 306.814 75.6075C306.814 76.286 307.085 76.8597 307.628 77.3285C308.171 77.7973 309.102 78.1735 310.422 78.4573L315.567 79.4936C318.33 80.0611 320.39 80.974 321.747 82.2323C323.104 83.4906 323.783 85.1437 323.783 87.1916C323.783 89.0545 323.234 90.6891 322.136 92.0955C321.05 93.5018 319.557 94.5998 317.658 95.3893C315.77 96.1665 313.593 96.5551 311.125 96.5551C307.363 96.5551 304.365 95.7718 302.132 94.205C299.911 92.6259 298.61 90.4793 298.227 87.7653L305.981 87.3582C306.215 88.5055 306.783 89.3814 307.683 89.9859C308.584 90.578 309.737 90.8741 311.144 90.8741C312.526 90.8741 313.636 90.6089 314.475 90.0784C315.326 89.5356 315.758 88.8386 315.77 87.9873C315.758 87.2718 315.456 86.6858 314.863 86.2294C314.271 85.7606 313.358 85.4028 312.125 85.1561L307.202 84.1753C304.427 83.6202 302.36 82.6579 301.003 81.2885C299.658 79.9192 298.986 78.1735 298.986 76.0516C298.986 74.2258 299.48 72.6529 300.467 71.3329C301.466 70.0129 302.866 68.9951 304.667 68.2796C306.481 67.564 308.603 67.2063 311.033 67.2063C314.623 67.2063 317.448 67.965 319.508 69.4824C321.581 70.9998 322.79 73.0662 323.135 75.6815ZM356.129 58.1018H364.05V84.5269C364.05 86.9696 363.501 89.0915 362.403 90.8926C361.317 92.6938 359.806 94.0817 357.869 95.0562C355.932 96.0308 353.681 96.5181 351.115 96.5181C348.832 96.5181 346.76 96.1172 344.897 95.3153C343.046 94.5011 341.578 93.2674 340.493 91.6143C339.407 89.9489 338.87 87.8578 338.883 85.3411H346.858C346.883 86.3404 347.087 87.1978 347.469 87.9133C347.864 88.6165 348.401 89.1593 349.079 89.5418C349.77 89.9119 350.584 90.0969 351.522 90.0969C352.509 90.0969 353.341 89.8872 354.02 89.4677C354.711 89.036 355.235 88.4068 355.593 87.5802C355.951 86.7537 356.129 85.7359 356.129 84.5269V58.1018ZM383.369 96.5551C380.494 96.5551 378.009 95.9445 375.911 94.7232C373.826 93.4895 372.216 91.7747 371.081 89.5788C369.947 87.3705 369.379 84.8107 369.379 81.8992C369.379 78.9631 369.947 76.3971 371.081 74.2011C372.216 71.9929 373.826 70.2781 375.911 69.0568C378.009 67.8231 380.494 67.2063 383.369 67.2063C386.243 67.2063 388.723 67.8231 390.808 69.0568C392.905 70.2781 394.521 71.9929 395.656 74.2011C396.791 76.3971 397.359 78.9631 397.359 81.8992C397.359 84.8107 396.791 87.3705 395.656 89.5788C394.521 91.7747 392.905 93.4895 390.808 94.7232C388.723 95.9445 386.243 96.5551 383.369 96.5551ZM383.406 90.4485C384.713 90.4485 385.805 90.0784 386.681 89.3382C387.557 88.5857 388.217 87.5617 388.661 86.2664C389.118 84.971 389.346 83.4968 389.346 81.8437C389.346 80.1906 389.118 78.7164 388.661 77.421C388.217 76.1257 387.557 75.1017 386.681 74.3492C385.805 73.5966 384.713 73.2204 383.406 73.2204C382.086 73.2204 380.975 73.5966 380.075 74.3492C379.187 75.1017 378.514 76.1257 378.058 77.421C377.614 78.7164 377.392 80.1906 377.392 81.8437C377.392 83.4968 377.614 84.971 378.058 86.2664C378.514 87.5617 379.187 88.5857 380.075 89.3382C380.975 90.0784 382.086 90.4485 383.406 90.4485ZM410.368 79.5676V96H402.484V58.1018H410.145V72.5912H410.479C411.12 70.9134 412.156 69.5996 413.587 68.6496C415.018 67.6874 416.813 67.2063 418.972 67.2063C420.946 67.2063 422.667 67.638 424.135 68.5016C425.616 69.3528 426.763 70.5803 427.577 72.1841C428.404 73.7755 428.811 75.6815 428.798 77.9021V96H420.915V79.3085C420.928 77.5567 420.484 76.1935 419.583 75.2189C418.695 74.2443 417.449 73.757 415.845 73.757C414.772 73.757 413.822 73.9853 412.995 74.4417C412.181 74.8982 411.54 75.5643 411.071 76.4402C410.614 77.3038 410.38 78.3463 410.368 79.5676ZM442.885 79.5676V96H435.002V67.5764H442.515V72.5912H442.848C443.478 70.9381 444.532 69.6304 446.013 68.6682C447.493 67.6936 449.288 67.2063 451.398 67.2063C453.372 67.2063 455.093 67.638 456.561 68.5016C458.029 69.3652 459.17 70.5988 459.984 72.2026C460.798 73.794 461.205 75.6939 461.205 77.9021V96H453.322V79.3085C453.335 77.569 452.89 76.212 451.99 75.2374C451.089 74.2505 449.849 73.757 448.27 73.757C447.209 73.757 446.272 73.9853 445.458 74.4417C444.656 74.8982 444.027 75.5643 443.57 76.4402C443.126 77.3038 442.898 78.3463 442.885 79.5676ZM491.068 75.6815L483.851 76.1257C483.727 75.5088 483.462 74.9537 483.055 74.4602C482.648 73.9544 482.111 73.5535 481.445 73.2574C480.791 72.949 480.008 72.7948 479.095 72.7948C477.874 72.7948 476.844 73.0538 476.005 73.572C475.166 74.0778 474.746 74.7563 474.746 75.6075C474.746 76.286 475.018 76.8597 475.561 77.3285C476.103 77.7973 477.035 78.1735 478.355 78.4573L483.499 79.4936C486.263 80.0611 488.323 80.974 489.68 82.2323C491.037 83.4906 491.715 85.1437 491.715 87.1916C491.715 89.0545 491.166 90.6891 490.068 92.0955C488.983 93.5018 487.49 94.5998 485.59 95.3893C483.703 96.1665 481.525 96.5551 479.058 96.5551C475.295 96.5551 472.298 95.7718 470.065 94.205C467.844 92.6259 466.542 90.4793 466.16 87.7653L473.914 87.3582C474.148 88.5055 474.715 89.3814 475.616 89.9859C476.517 90.578 477.67 90.8741 479.076 90.8741C480.458 90.8741 481.569 90.6089 482.407 90.0784C483.259 89.5356 483.69 88.8386 483.703 87.9873C483.69 87.2718 483.388 86.6858 482.796 86.2294C482.204 85.7606 481.291 85.4028 480.057 85.1561L475.135 84.1753C472.359 83.6202 470.293 82.6579 468.936 81.2885C467.591 79.9192 466.919 78.1735 466.919 76.0516C466.919 74.2258 467.412 72.6529 468.399 71.3329C469.398 70.0129 470.799 68.9951 472.6 68.2796C474.413 67.564 476.535 67.2063 478.965 67.2063C482.555 67.2063 485.381 67.965 487.441 69.4824C489.513 70.9998 490.722 73.0662 491.068 75.6815ZM509.522 96.5551C506.647 96.5551 504.162 95.9445 502.064 94.7232C499.979 93.4895 498.369 91.7747 497.235 89.5788C496.1 87.3705 495.532 84.8107 495.532 81.8992C495.532 78.9631 496.1 76.3971 497.235 74.2011C498.369 71.9929 499.979 70.2781 502.064 69.0568C504.162 67.8231 506.647 67.2063 509.522 67.2063C512.396 67.2063 514.876 67.8231 516.961 69.0568C519.058 70.2781 520.674 71.9929 521.809 74.2011C522.944 76.3971 523.512 78.9631 523.512 81.8992C523.512 84.8107 522.944 87.3705 521.809 89.5788C520.674 91.7747 519.058 93.4895 516.961 94.7232C514.876 95.9445 512.396 96.5551 509.522 96.5551ZM509.559 90.4485C510.866 90.4485 511.958 90.0784 512.834 89.3382C513.71 88.5857 514.37 87.5617 514.814 86.2664C515.271 84.971 515.499 83.4968 515.499 81.8437C515.499 80.1906 515.271 78.7164 514.814 77.421C514.37 76.1257 513.71 75.1017 512.834 74.3492C511.958 73.5966 510.866 73.2204 509.559 73.2204C508.239 73.2204 507.128 73.5966 506.228 74.3492C505.34 75.1017 504.667 76.1257 504.211 77.421C503.767 78.7164 503.545 80.1906 503.545 81.8437C503.545 83.4968 503.767 84.971 504.211 86.2664C504.667 87.5617 505.34 88.5857 506.228 89.3382C507.128 90.0784 508.239 90.4485 509.559 90.4485ZM536.521 79.5676V96H528.637V67.5764H536.15V72.5912H536.484C537.113 70.9381 538.167 69.6304 539.648 68.6682C541.128 67.6936 542.923 67.2063 545.033 67.2063C547.007 67.2063 548.728 67.638 550.196 68.5016C551.664 69.3652 552.805 70.5988 553.619 72.2026C554.433 73.794 554.84 75.6939 554.84 77.9021V96H546.957V79.3085C546.97 77.569 546.526 76.212 545.625 75.2374C544.724 74.2505 543.485 73.757 541.905 73.757C540.845 73.757 539.907 73.9853 539.093 74.4417C538.291 74.8982 537.662 75.5643 537.205 76.4402C536.761 77.3038 536.533 78.3463 536.521 79.5676Z" fill="url(#paint3_linear_47_54)"/>
</g>
<defs>
<linearGradient id="paint0_linear_47_54" x1="81.4013" y1="80.9782" x2="16.4822" y2="135.56" gradientUnits="userSpaceOnUse">
<stop stop-color="#EC4889"/>
<stop offset="1" stop-color="#EC40D1"/>
</linearGradient>
<linearGradient id="paint1_linear_47_54" x1="29.0135" y1="24.9459" x2="93.2939" y2="76.4705" gradientUnits="userSpaceOnUse">
<stop stop-color="#EC4889"/>
<stop offset="1" stop-color="#F87171"/>
</linearGradient>
<linearGradient id="paint2_linear_47_54" x1="72.0135" y1="65.9459" x2="136.294" y2="117.47" gradientUnits="userSpaceOnUse">
<stop stop-color="#6EACFC"/>
<stop offset="0.477543" stop-color="#719CF8"/>
</linearGradient>
<linearGradient id="paint3_linear_47_54" x1="213.433" y1="59.6216" x2="233.89" y2="155.223" gradientUnits="userSpaceOnUse">
<stop stop-color="#9248EC"/>
<stop offset="1" stop-color="#F87171"/>
</linearGradient>
<clipPath id="clip0_47_54">
<rect width="156.091" height="154.846" fill="white" transform="translate(0.454468 0.0767822)"/>
</clipPath>
<clipPath id="clip1_47_54">
<rect width="385" height="60" fill="white" transform="translate(173.546 47.5)"/>
</clipPath>
</defs>
</svg>
