<svg width="437" height="116" viewBox="0 0 437 116" fill="none" xmlns="http://www.w3.org/2000/svg">
<g clip-path="url(#clip0_47_54)">
<path d="M13.2939 76.5V38.6018H21.3065V69.8937H37.5539V76.5H13.2939ZM60.9396 64.3977V48.0764H68.8227V76.5H61.2541V71.3371H60.9581C60.3166 73.0026 59.2494 74.3411 57.7567 75.3527C56.2763 76.3643 54.469 76.8701 52.3347 76.8701C50.4349 76.8701 48.7633 76.4383 47.3199 75.5748C45.8765 74.7112 44.7477 73.4837 43.9335 71.8923C43.1316 70.3008 42.7245 68.3948 42.7122 66.1742V48.0764H50.5953V64.7678C50.6076 66.4456 51.0579 67.7718 51.9461 68.7464C52.8344 69.721 54.0249 70.2083 55.5176 70.2083C56.4675 70.2083 57.3558 69.9924 58.1823 69.5606C59.0089 69.1165 59.6751 68.4627 60.1809 67.5991C60.699 66.7355 60.9519 65.6684 60.9396 64.3977ZM87.9707 77.0551C85.0593 77.0551 82.5549 76.4383 80.4577 75.2047C78.3728 73.9587 76.769 72.2315 75.6464 70.0233C74.5361 67.815 73.9809 65.2737 73.9809 62.3992C73.9809 59.4878 74.5423 56.9341 75.6649 54.7382C76.7999 52.5299 78.4098 50.8089 80.4947 49.5753C82.5796 48.3293 85.0593 47.7063 87.9337 47.7063C90.4134 47.7063 92.5846 48.1566 94.4474 49.0571C96.3103 49.9577 97.7845 51.2222 98.8701 52.8506C99.9558 54.4791 100.554 56.3913 100.665 58.5872H93.2261C93.0164 57.1685 92.4612 56.0273 91.5607 55.1638C90.6724 54.2879 89.5066 53.8499 88.0632 53.8499C86.8419 53.8499 85.7748 54.183 84.8619 54.8492C83.9613 55.503 83.2581 56.4591 82.7523 57.7175C82.2465 58.9758 81.9936 60.4994 81.9936 62.2882C81.9936 64.1017 82.2403 65.6437 82.7338 66.9144C83.2396 68.1851 83.949 69.1535 84.8619 69.8197C85.7748 70.4859 86.8419 70.819 88.0632 70.819C88.9638 70.819 89.7718 70.6339 90.4874 70.2638C91.2152 69.8937 91.8136 69.3571 92.2824 68.6539C92.7635 67.9384 93.0781 67.081 93.2261 66.0817H100.665C100.542 68.253 99.9496 70.1651 98.8886 71.8182C97.84 73.459 96.3905 74.742 94.54 75.6673C92.6895 76.5925 90.4997 77.0551 87.9707 77.0551ZM113.818 77.0366C112.004 77.0366 110.388 76.7221 108.969 76.0929C107.551 75.4514 106.428 74.5076 105.601 73.2616C104.787 72.0033 104.38 70.4365 104.38 68.5614C104.38 66.9823 104.67 65.6561 105.25 64.5828C105.83 63.5095 106.619 62.6459 107.618 61.9921C108.618 61.3383 109.753 60.8448 111.023 60.5117C112.306 60.1786 113.651 59.9442 115.057 59.8085C116.71 59.6358 118.043 59.4754 119.054 59.3274C120.066 59.167 120.8 58.9326 121.257 58.6242C121.713 58.3158 121.941 57.8593 121.941 57.2548V57.1438C121.941 55.9718 121.571 55.0651 120.831 54.4236C120.103 53.7821 119.067 53.4613 117.722 53.4613C116.303 53.4613 115.175 53.7759 114.336 54.4051C113.497 55.0219 112.942 55.7991 112.67 56.7367L105.379 56.1445C105.749 54.4174 106.477 52.9247 107.563 51.6663C108.648 50.3957 110.049 49.4211 111.763 48.7425C113.491 48.0517 115.489 47.7063 117.759 47.7063C119.338 47.7063 120.849 47.8913 122.293 48.2614C123.749 48.6315 125.038 49.2052 126.16 49.9824C127.295 50.7596 128.19 51.7589 128.844 52.9802C129.497 54.1892 129.824 55.6387 129.824 57.3288V76.5H122.348V72.5584H122.126C121.67 73.4467 121.059 74.2301 120.294 74.9086C119.529 75.5748 118.61 76.0991 117.537 76.4815C116.464 76.8516 115.224 77.0366 113.818 77.0366ZM116.075 71.5962C117.235 71.5962 118.259 71.368 119.147 70.9115C120.035 70.4427 120.732 69.8135 121.238 69.024C121.744 68.2344 121.997 67.34 121.997 66.3408V63.3245C121.75 63.4848 121.411 63.6329 120.979 63.7686C120.559 63.8919 120.085 64.0091 119.554 64.1202C119.024 64.2189 118.493 64.3114 117.963 64.3977C117.432 64.4718 116.951 64.5396 116.519 64.6013C115.594 64.737 114.786 64.9529 114.095 65.249C113.404 65.5451 112.868 65.946 112.485 66.4518C112.103 66.9453 111.912 67.5621 111.912 68.3023C111.912 69.3756 112.3 70.196 113.077 70.7635C113.867 71.3186 114.866 71.5962 116.075 71.5962ZM159.59 56.1815L152.373 56.6257C152.249 56.0088 151.984 55.4537 151.577 54.9602C151.17 54.4544 150.633 54.0535 149.967 53.7574C149.313 53.449 148.53 53.2948 147.617 53.2948C146.396 53.2948 145.365 53.5538 144.527 54.072C143.688 54.5778 143.268 55.2563 143.268 56.1075C143.268 56.786 143.54 57.3597 144.082 57.8285C144.625 58.2973 145.557 58.6735 146.877 58.9573L152.021 59.9936C154.784 60.5611 156.845 61.474 158.202 62.7323C159.559 63.9906 160.237 65.6437 160.237 67.6916C160.237 69.5545 159.688 71.1891 158.59 72.5955C157.505 74.0018 156.012 75.0998 154.112 75.8893C152.225 76.6665 150.047 77.0551 147.58 77.0551C143.817 77.0551 140.819 76.2718 138.586 74.705C136.366 73.1259 135.064 70.9793 134.682 68.2653L142.435 67.8582C142.67 69.0055 143.237 69.8814 144.138 70.4859C145.038 71.078 146.192 71.3741 147.598 71.3741C148.98 71.3741 150.09 71.1089 150.929 70.5784C151.78 70.0356 152.212 69.3386 152.225 68.4873C152.212 67.7718 151.91 67.1858 151.318 66.7294C150.726 66.2606 149.813 65.9028 148.579 65.6561L143.657 64.6753C140.881 64.1202 138.815 63.1579 137.458 61.7885C136.113 60.4192 135.441 58.6735 135.441 56.5516C135.441 54.7258 135.934 53.1529 136.921 51.8329C137.92 50.5129 139.32 49.4951 141.122 48.7796C142.935 48.064 145.057 47.7063 147.487 47.7063C151.077 47.7063 153.902 48.465 155.963 49.9824C158.035 51.4998 159.244 53.5662 159.59 56.1815ZM192.584 38.6018H200.504V65.0269C200.504 67.4696 199.955 69.5915 198.857 71.3926C197.771 73.1938 196.26 74.5817 194.323 75.5562C192.387 76.5308 190.135 77.0181 187.569 77.0181C185.287 77.0181 183.214 76.6172 181.351 75.8153C179.501 75.0011 178.033 73.7674 176.947 72.1143C175.862 70.4489 175.325 68.3578 175.337 65.8411H183.313C183.338 66.8404 183.541 67.6978 183.924 68.4133C184.318 69.1165 184.855 69.6593 185.534 70.0418C186.224 70.4119 187.039 70.5969 187.976 70.5969C188.963 70.5969 189.796 70.3872 190.474 69.9677C191.165 69.536 191.69 68.9068 192.047 68.0802C192.405 67.2537 192.584 66.2359 192.584 65.0269V38.6018ZM219.823 77.0551C216.949 77.0551 214.463 76.4445 212.366 75.2232C210.281 73.9895 208.671 72.2747 207.536 70.0788C206.401 67.8705 205.833 65.3107 205.833 62.3992C205.833 59.4631 206.401 56.8971 207.536 54.7011C208.671 52.4929 210.281 50.7781 212.366 49.5568C214.463 48.3231 216.949 47.7063 219.823 47.7063C222.698 47.7063 225.177 48.3231 227.262 49.5568C229.359 50.7781 230.976 52.4929 232.111 54.7011C233.246 56.8971 233.813 59.4631 233.813 62.3992C233.813 65.3107 233.246 67.8705 232.111 70.0788C230.976 72.2747 229.359 73.9895 227.262 75.2232C225.177 76.4445 222.698 77.0551 219.823 77.0551ZM219.86 70.9485C221.168 70.9485 222.26 70.5784 223.136 69.8382C224.012 69.0857 224.672 68.0617 225.116 66.7664C225.572 65.471 225.8 63.9968 225.8 62.3437C225.8 60.6906 225.572 59.2164 225.116 57.921C224.672 56.6257 224.012 55.6017 223.136 54.8492C222.26 54.0966 221.168 53.7204 219.86 53.7204C218.54 53.7204 217.43 54.0966 216.529 54.8492C215.641 55.6017 214.969 56.6257 214.512 57.921C214.068 59.2164 213.846 60.6906 213.846 62.3437C213.846 63.9968 214.068 65.471 214.512 66.7664C214.969 68.0617 215.641 69.0857 216.529 69.8382C217.43 70.5784 218.54 70.9485 219.86 70.9485ZM246.822 60.0676V76.5H238.939V38.6018H246.6V53.0912H246.933C247.575 51.4134 248.611 50.0996 250.042 49.1496C251.473 48.1874 253.268 47.7063 255.427 47.7063C257.401 47.7063 259.122 48.138 260.59 49.0016C262.07 49.8528 263.217 51.0803 264.032 52.6841C264.858 54.2755 265.265 56.1815 265.253 58.4021V76.5H257.37V59.8085C257.382 58.0567 256.938 56.6935 256.037 55.7189C255.149 54.7443 253.903 54.257 252.299 54.257C251.226 54.257 250.276 54.4853 249.45 54.9417C248.635 55.3982 247.994 56.0643 247.525 56.9402C247.069 57.8038 246.834 58.8463 246.822 60.0676ZM279.34 60.0676V76.5H271.457V48.0764H278.97V53.0912H279.303C279.932 51.4381 280.987 50.1304 282.467 49.1682C283.948 48.1936 285.743 47.7063 287.852 47.7063C289.826 47.7063 291.547 48.138 293.015 49.0016C294.483 49.8652 295.624 51.0988 296.438 52.7026C297.253 54.294 297.66 56.1939 297.66 58.4021V76.5H289.777V59.8085C289.789 58.069 289.345 56.712 288.444 55.7374C287.544 54.7505 286.304 54.257 284.725 54.257C283.664 54.257 282.726 54.4853 281.912 54.9417C281.11 55.3982 280.481 56.0643 280.025 56.9402C279.58 57.8038 279.352 58.8463 279.34 60.0676ZM327.522 56.1815L320.305 56.6257C320.182 56.0088 319.917 55.4537 319.51 54.9602C319.102 54.4544 318.566 54.0535 317.9 53.7574C317.246 53.449 316.462 53.2948 315.549 53.2948C314.328 53.2948 313.298 53.5538 312.459 54.072C311.62 54.5778 311.201 55.2563 311.201 56.1075C311.201 56.786 311.472 57.3597 312.015 57.8285C312.558 58.2973 313.489 58.6735 314.809 58.9573L319.954 59.9936C322.717 60.5611 324.777 61.474 326.134 62.7323C327.491 63.9906 328.17 65.6437 328.17 67.6916C328.17 69.5545 327.621 71.1891 326.523 72.5955C325.437 74.0018 323.945 75.0998 322.045 75.8893C320.157 76.6665 317.98 77.0551 315.512 77.0551C311.75 77.0551 308.752 76.2718 306.519 74.705C304.298 73.1259 302.997 70.9793 302.614 68.2653L310.368 67.8582C310.602 69.0055 311.17 69.8814 312.071 70.4859C312.971 71.078 314.125 71.3741 315.531 71.3741C316.913 71.3741 318.023 71.1089 318.862 70.5784C319.713 70.0356 320.145 69.3386 320.157 68.4873C320.145 67.7718 319.843 67.1858 319.25 66.7294C318.658 66.2606 317.745 65.9028 316.512 65.6561L311.589 64.6753C308.814 64.1202 306.747 63.1579 305.39 61.7885C304.046 60.4192 303.373 58.6735 303.373 56.5516C303.373 54.7258 303.867 53.1529 304.854 51.8329C305.853 50.5129 307.253 49.4951 309.054 48.7796C310.868 48.064 312.99 47.7063 315.42 47.7063C319.01 47.7063 321.835 48.465 323.895 49.9824C325.968 51.4998 327.177 53.5662 327.522 56.1815ZM345.976 77.0551C343.102 77.0551 340.616 76.4445 338.519 75.2232C336.434 73.9895 334.824 72.2747 333.689 70.0788C332.554 67.8705 331.987 65.3107 331.987 62.3992C331.987 59.4631 332.554 56.8971 333.689 54.7011C334.824 52.4929 336.434 50.7781 338.519 49.5568C340.616 48.3231 343.102 47.7063 345.976 47.7063C348.851 47.7063 351.33 48.3231 353.415 49.5568C355.513 50.7781 357.129 52.4929 358.264 54.7011C359.399 56.8971 359.966 59.4631 359.966 62.3992C359.966 65.3107 359.399 67.8705 358.264 70.0788C357.129 72.2747 355.513 73.9895 353.415 75.2232C351.33 76.4445 348.851 77.0551 345.976 77.0551ZM346.013 70.9485C347.321 70.9485 348.413 70.5784 349.289 69.8382C350.165 69.0857 350.825 68.0617 351.269 66.7664C351.725 65.471 351.953 63.9968 351.953 62.3437C351.953 60.6906 351.725 59.2164 351.269 57.921C350.825 56.6257 350.165 55.6017 349.289 54.8492C348.413 54.0966 347.321 53.7204 346.013 53.7204C344.693 53.7204 343.583 54.0966 342.682 54.8492C341.794 55.6017 341.122 56.6257 340.665 57.921C340.221 59.2164 339.999 60.6906 339.999 62.3437C339.999 63.9968 340.221 65.471 340.665 66.7664C341.122 68.0617 341.794 69.0857 342.682 69.8382C343.583 70.5784 344.693 70.9485 346.013 70.9485ZM372.975 60.0676V76.5H365.092V48.0764H372.605V53.0912H372.938C373.567 51.4381 374.622 50.1304 376.102 49.1682C377.583 48.1936 379.378 47.7063 381.487 47.7063C383.461 47.7063 385.182 48.138 386.65 49.0016C388.118 49.8652 389.259 51.0988 390.074 52.7026C390.888 54.294 391.295 56.1939 391.295 58.4021V76.5H383.412V59.8085C383.424 58.069 382.98 56.712 382.079 55.7374C381.179 54.7505 379.939 54.257 378.36 54.257C377.299 54.257 376.361 54.4853 375.547 54.9417C374.745 55.3982 374.116 56.0643 373.66 56.9402C373.216 57.8038 372.987 58.8463 372.975 60.0676Z" fill="url(#paint0_linear_47_54)"/>
</g>
<defs>
<linearGradient id="paint0_linear_47_54" x1="10" y1="58" x2="395" y2="58" gradientUnits="userSpaceOnUse">
<stop stop-color="#0091FF"/>
<stop offset="1" stop-color="#9ED7FF"/>
</linearGradient>
<clipPath id="clip0_47_54">
<rect width="385" height="60" fill="white" transform="translate(10 28)"/>
</clipPath>
</defs>
</svg>
