<svg width="438" height="81" viewBox="0 0 438 81" fill="none" xmlns="http://www.w3.org/2000/svg">
<g clip-path="url(#clip0_5_107)">
<path d="M14.0667 59V21.1018H22.0793V52.3937H38.3267V59H14.0667ZM61.7123 46.8977V30.5764H69.5954V59H62.0269V53.8371H61.7308C61.0893 55.5026 60.0222 56.8411 58.5295 57.8527C57.0491 58.8643 55.2418 59.3701 53.1075 59.3701C51.2077 59.3701 49.5361 58.9383 48.0927 58.0748C46.6493 57.2112 45.5205 55.9837 44.7063 54.3923C43.9044 52.8008 43.4973 50.8948 43.4849 48.6742V30.5764H51.368V47.2678C51.3804 48.9456 51.8307 50.2718 52.7189 51.2464C53.6072 52.221 54.7976 52.7083 56.2904 52.7083C57.2403 52.7083 58.1285 52.4924 58.9551 52.0606C59.7816 51.6165 60.4478 50.9627 60.9536 50.0991C61.4718 49.2355 61.7247 48.1684 61.7123 46.8977ZM88.7435 59.5551C85.832 59.5551 83.3277 58.9383 81.2304 57.7047C79.1456 56.4587 77.5418 54.7315 76.4192 52.5233C75.3089 50.315 74.7537 47.7737 74.7537 44.8992C74.7537 41.9878 75.315 39.4341 76.4377 37.2382C77.5726 35.0299 79.1826 33.3089 81.2675 32.0753C83.3523 30.8293 85.832 30.2063 88.7065 30.2063C91.1861 30.2063 93.3574 30.6566 95.2202 31.5571C97.083 32.4577 98.5573 33.7222 99.6429 35.3506C100.729 36.9791 101.327 38.8913 101.438 41.0872H93.9989C93.7892 39.6685 93.234 38.5273 92.3334 37.6638C91.4452 36.7879 90.2794 36.3499 88.836 36.3499C87.6147 36.3499 86.5475 36.683 85.6346 37.3492C84.7341 38.003 84.0309 38.9591 83.5251 40.2175C83.0193 41.4758 82.7664 42.9994 82.7664 44.7882C82.7664 46.6017 83.0131 48.1437 83.5066 49.4144C84.0124 50.6851 84.7217 51.6535 85.6346 52.3197C86.5475 52.9859 87.6147 53.319 88.836 53.319C89.7366 53.319 90.5446 53.1339 91.2601 52.7638C91.988 52.3937 92.5863 51.8571 93.0551 51.1539C93.5363 50.4384 93.8508 49.581 93.9989 48.5817H101.438C101.315 50.753 100.722 52.6651 99.6614 54.3182C98.6128 55.959 97.1632 57.242 95.3127 58.1673C93.4622 59.0925 91.2725 59.5551 88.7435 59.5551ZM114.59 59.5366C112.777 59.5366 111.161 59.2221 109.742 58.5929C108.323 57.9514 107.201 57.0076 106.374 55.7616C105.56 54.5033 105.153 52.9365 105.153 51.0614C105.153 49.4823 105.443 48.1561 106.022 47.0828C106.602 46.0095 107.392 45.1459 108.391 44.4921C109.39 43.8383 110.525 43.3448 111.796 43.0117C113.079 42.6786 114.424 42.4442 115.83 42.3085C117.483 42.1358 118.816 41.9754 119.827 41.8274C120.839 41.667 121.573 41.4326 122.029 41.1242C122.486 40.8158 122.714 40.3593 122.714 39.7548V39.6438C122.714 38.4718 122.344 37.5651 121.604 36.9236C120.876 36.2821 119.84 35.9613 118.495 35.9613C117.076 35.9613 115.947 36.2759 115.108 36.9051C114.27 37.5219 113.714 38.2991 113.443 39.2367L106.152 38.6445C106.522 36.9174 107.25 35.4247 108.336 34.1663C109.421 32.8957 110.821 31.9211 112.536 31.2425C114.263 30.5517 116.262 30.2063 118.532 30.2063C120.111 30.2063 121.622 30.3913 123.066 30.7614C124.521 31.1315 125.81 31.7052 126.933 32.4824C128.068 33.2596 128.962 34.2589 129.616 35.4802C130.27 36.6892 130.597 38.1387 130.597 39.8288V59H123.121V55.0584H122.899C122.443 55.9467 121.832 56.7301 121.067 57.4086C120.302 58.0748 119.383 58.5991 118.31 58.9815C117.236 59.3516 115.997 59.5366 114.59 59.5366ZM116.848 54.0962C118.008 54.0962 119.031 53.868 119.92 53.4115C120.808 52.9427 121.505 52.3135 122.011 51.524C122.517 50.7344 122.769 49.84 122.769 48.8408V45.8245C122.523 45.9848 122.183 46.1329 121.752 46.2686C121.332 46.3919 120.857 46.5091 120.327 46.6202C119.796 46.7189 119.266 46.8114 118.735 46.8977C118.205 46.9718 117.724 47.0396 117.292 47.1013C116.367 47.237 115.559 47.4529 114.868 47.749C114.177 48.0451 113.64 48.446 113.258 48.9518C112.875 49.4453 112.684 50.0621 112.684 50.8023C112.684 51.8756 113.073 52.696 113.85 53.2635C114.64 53.8186 115.639 54.0962 116.848 54.0962ZM160.362 38.6815L153.145 39.1257C153.022 38.5088 152.757 37.9537 152.35 37.4602C151.943 36.9544 151.406 36.5535 150.74 36.2574C150.086 35.949 149.303 35.7948 148.39 35.7948C147.168 35.7948 146.138 36.0538 145.299 36.572C144.46 37.0778 144.041 37.7563 144.041 38.6075C144.041 39.286 144.312 39.8597 144.855 40.3285C145.398 40.7973 146.329 41.1735 147.649 41.4573L152.794 42.4936C155.557 43.0611 157.617 43.974 158.974 45.2323C160.331 46.4906 161.01 48.1437 161.01 50.1916C161.01 52.0545 160.461 53.6891 159.363 55.0955C158.277 56.5018 156.785 57.5998 154.885 58.3893C152.997 59.1665 150.82 59.5551 148.353 59.5551C144.59 59.5551 141.592 58.7718 139.359 57.205C137.139 55.6259 135.837 53.4793 135.455 50.7653L143.208 50.3582C143.443 51.5055 144.01 52.3814 144.911 52.9859C145.811 53.578 146.965 53.8741 148.371 53.8741C149.753 53.8741 150.863 53.6089 151.702 53.0784C152.553 52.5356 152.985 51.8386 152.997 50.9873C152.985 50.2718 152.683 49.6858 152.091 49.2294C151.498 48.7606 150.586 48.4028 149.352 48.1561L144.43 47.1753C141.654 46.6202 139.587 45.6579 138.23 44.2885C136.886 42.9192 136.213 41.1735 136.213 39.0516C136.213 37.2258 136.707 35.6529 137.694 34.3329C138.693 33.0129 140.093 31.9951 141.894 31.2796C143.708 30.564 145.83 30.2063 148.26 30.2063C151.85 30.2063 154.675 30.965 156.735 32.4824C158.808 33.9998 160.017 36.0662 160.362 38.6815ZM193.357 21.1018H201.277V47.5269C201.277 49.9696 200.728 52.0915 199.63 53.8926C198.544 55.6938 197.033 57.0817 195.096 58.0562C193.159 59.0308 190.908 59.5181 188.342 59.5181C186.06 59.5181 183.987 59.1172 182.124 58.3153C180.274 57.5011 178.806 56.2674 177.72 54.6143C176.634 52.9489 176.098 50.8578 176.11 48.3411H184.086C184.11 49.3404 184.314 50.1978 184.696 50.9133C185.091 51.6165 185.628 52.1593 186.306 52.5418C186.997 52.9119 187.811 53.0969 188.749 53.0969C189.736 53.0969 190.569 52.8872 191.247 52.4677C191.938 52.036 192.462 51.4068 192.82 50.5802C193.178 49.7537 193.357 48.7359 193.357 47.5269V21.1018ZM220.596 59.5551C217.722 59.5551 215.236 58.9445 213.139 57.7232C211.054 56.4895 209.444 54.7747 208.309 52.5788C207.174 50.3705 206.606 47.8107 206.606 44.8992C206.606 41.9631 207.174 39.3971 208.309 37.2011C209.444 34.9929 211.054 33.2781 213.139 32.0568C215.236 30.8231 217.722 30.2063 220.596 30.2063C223.47 30.2063 225.95 30.8231 228.035 32.0568C230.132 33.2781 231.748 34.9929 232.883 37.2011C234.018 39.3971 234.586 41.9631 234.586 44.8992C234.586 47.8107 234.018 50.3705 232.883 52.5788C231.748 54.7747 230.132 56.4895 228.035 57.7232C225.95 58.9445 223.47 59.5551 220.596 59.5551ZM220.633 53.4485C221.941 53.4485 223.033 53.0784 223.908 52.3382C224.784 51.5857 225.444 50.5617 225.888 49.2664C226.345 47.971 226.573 46.4968 226.573 44.8437C226.573 43.1906 226.345 41.7164 225.888 40.421C225.444 39.1257 224.784 38.1017 223.908 37.3492C223.033 36.5966 221.941 36.2204 220.633 36.2204C219.313 36.2204 218.203 36.5966 217.302 37.3492C216.414 38.1017 215.742 39.1257 215.285 40.421C214.841 41.7164 214.619 43.1906 214.619 44.8437C214.619 46.4968 214.841 47.971 215.285 49.2664C215.742 50.5617 216.414 51.5857 217.302 52.3382C218.203 53.0784 219.313 53.4485 220.633 53.4485ZM247.595 42.5676V59H239.712V21.1018H247.373V35.5912H247.706C248.347 33.9134 249.384 32.5996 250.815 31.6496C252.246 30.6874 254.041 30.2063 256.2 30.2063C258.173 30.2063 259.894 30.638 261.362 31.5016C262.843 32.3528 263.99 33.5803 264.804 35.1841C265.631 36.7755 266.038 38.6815 266.026 40.9021V59H258.143V42.3085C258.155 40.5567 257.711 39.1935 256.81 38.2189C255.922 37.2443 254.676 36.757 253.072 36.757C251.999 36.757 251.049 36.9853 250.222 37.4417C249.408 37.8982 248.767 38.5643 248.298 39.4402C247.842 40.3038 247.607 41.3463 247.595 42.5676ZM280.113 42.5676V59H272.23V30.5764H279.743V35.5912H280.076C280.705 33.9381 281.76 32.6304 283.24 31.6682C284.72 30.6936 286.515 30.2063 288.625 30.2063C290.599 30.2063 292.32 30.638 293.788 31.5016C295.256 32.3652 296.397 33.5988 297.211 35.2026C298.025 36.794 298.433 38.6939 298.433 40.9021V59H290.549V42.3085C290.562 40.569 290.118 39.212 289.217 38.2374C288.317 37.2505 287.077 36.757 285.498 36.757C284.437 36.757 283.499 36.9853 282.685 37.4417C281.883 37.8982 281.254 38.5643 280.797 39.4402C280.353 40.3038 280.125 41.3463 280.113 42.5676ZM328.295 38.6815L321.078 39.1257C320.955 38.5088 320.689 37.9537 320.282 37.4602C319.875 36.9544 319.339 36.5535 318.672 36.2574C318.019 35.949 317.235 35.7948 316.322 35.7948C315.101 35.7948 314.071 36.0538 313.232 36.572C312.393 37.0778 311.974 37.7563 311.974 38.6075C311.974 39.286 312.245 39.8597 312.788 40.3285C313.331 40.7973 314.262 41.1735 315.582 41.4573L320.726 42.4936C323.49 43.0611 325.55 43.974 326.907 45.2323C328.264 46.4906 328.943 48.1437 328.943 50.1916C328.943 52.0545 328.394 53.6891 327.296 55.0955C326.21 56.5018 324.717 57.5998 322.817 58.3893C320.93 59.1665 318.753 59.5551 316.285 59.5551C312.523 59.5551 309.525 58.7718 307.292 57.205C305.071 55.6259 303.77 53.4793 303.387 50.7653L311.141 50.3582C311.375 51.5055 311.943 52.3814 312.843 52.9859C313.744 53.578 314.897 53.8741 316.304 53.8741C317.685 53.8741 318.796 53.6089 319.635 53.0784C320.486 52.5356 320.918 51.8386 320.93 50.9873C320.918 50.2718 320.615 49.6858 320.023 49.2294C319.431 48.7606 318.518 48.4028 317.284 48.1561L312.362 47.1753C309.586 46.6202 307.52 45.6579 306.163 44.2885C304.818 42.9192 304.146 41.1735 304.146 39.0516C304.146 37.2258 304.639 35.6529 305.626 34.3329C306.626 33.0129 308.026 31.9951 309.827 31.2796C311.64 30.564 313.762 30.2063 316.193 30.2063C319.783 30.2063 322.608 30.965 324.668 32.4824C326.741 33.9998 327.95 36.0662 328.295 38.6815ZM346.749 59.5551C343.875 59.5551 341.389 58.9445 339.292 57.7232C337.207 56.4895 335.597 54.7747 334.462 52.5788C333.327 50.3705 332.759 47.8107 332.759 44.8992C332.759 41.9631 333.327 39.3971 334.462 37.2011C335.597 34.9929 337.207 33.2781 339.292 32.0568C341.389 30.8231 343.875 30.2063 346.749 30.2063C349.623 30.2063 352.103 30.8231 354.188 32.0568C356.285 33.2781 357.901 34.9929 359.036 37.2011C360.171 39.3971 360.739 41.9631 360.739 44.8992C360.739 47.8107 360.171 50.3705 359.036 52.5788C357.901 54.7747 356.285 56.4895 354.188 57.7232C352.103 58.9445 349.623 59.5551 346.749 59.5551ZM346.786 53.4485C348.094 53.4485 349.186 53.0784 350.061 52.3382C350.937 51.5857 351.597 50.5617 352.041 49.2664C352.498 47.971 352.726 46.4968 352.726 44.8437C352.726 43.1906 352.498 41.7164 352.041 40.421C351.597 39.1257 350.937 38.1017 350.061 37.3492C349.186 36.5966 348.094 36.2204 346.786 36.2204C345.466 36.2204 344.356 36.5966 343.455 37.3492C342.567 38.1017 341.895 39.1257 341.438 40.421C340.994 41.7164 340.772 43.1906 340.772 44.8437C340.772 46.4968 340.994 47.971 341.438 49.2664C341.895 50.5617 342.567 51.5857 343.455 52.3382C344.356 53.0784 345.466 53.4485 346.786 53.4485ZM373.748 42.5676V59H365.865V30.5764H373.378V35.5912H373.711C374.34 33.9381 375.395 32.6304 376.875 31.6682C378.356 30.6936 380.15 30.2063 382.26 30.2063C384.234 30.2063 385.955 30.638 387.423 31.5016C388.891 32.3652 390.032 33.5988 390.846 35.2026C391.661 36.794 392.068 38.6939 392.068 40.9021V59H384.185V42.3085C384.197 40.569 383.753 39.212 382.852 38.2374C381.952 37.2505 380.712 36.757 379.133 36.757C378.072 36.757 377.134 36.9853 376.32 37.4417C375.518 37.8982 374.889 38.5643 374.432 39.4402C373.988 40.3038 373.76 41.3463 373.748 42.5676Z" fill="url(#paint0_linear_5_107)"/>
</g>
<defs>
<linearGradient id="paint0_linear_5_107" x1="50.6601" y1="22.6216" x2="71.1176" y2="118.223" gradientUnits="userSpaceOnUse">
<stop stop-color="#9248EC"/>
<stop offset="1" stop-color="#F87171"/>
</linearGradient>
<clipPath id="clip0_5_107">
<rect width="385" height="60" fill="white" transform="translate(10.7728 10.5)"/>
</clipPath>
</defs>
</svg>
