<?xml version="1.0" standalone="no"?>
<!DOCTYPE svg PUBLIC "-//W3C//DTD SVG 20010904//EN"
 "http://www.w3.org/TR/2001/REC-SVG-20010904/DTD/svg10.dtd">
<svg version="1.0" xmlns="http://www.w3.org/2000/svg"
 width="300.000000pt" height="311.000000pt" viewBox="0 0 300.000000 311.000000"
 preserveAspectRatio="xMidYMid meet">
<metadata>
Created by potrace 1.10, written by Peter Selinger 2001-2011
</metadata>
<g transform="translate(0.000000,311.000000) scale(0.100000,-0.100000)"
fill="#b92d5d" stroke="none">
<path d="M1340 2794 c-165 -21 -316 -66 -450 -134 -103 -53 -183 -107 -171
-115 6 -3 12 -34 13 -68 l2 -62 3 53 c4 53 4 53 66 93 302 196 696 246 1044
133 102 -33 241 -104 325 -164 62 -45 68 -48 77 -31 12 22 5 28 -84 88 -128
85 -303 158 -459 189 -73 14 -304 26 -366 18z"/>
<path d="M374 2666 c-3 -8 -4 -23 -1 -33 4 -14 5 -13 6 5 1 29 27 39 50 18 10
-9 25 -16 33 -16 15 0 76 -60 95 -95 7 -11 16 -15 24 -11 28 14 57 32 73 45 9
7 25 11 36 8 11 -3 18 -1 14 4 -8 14 -40 11 -54 -6 -7 -8 -18 -15 -25 -15 -7
0 -18 -7 -25 -15 -19 -23 -25 -19 -64 35 -25 35 -45 52 -66 56 -16 4 -35 13
-41 20 -15 18 -48 18 -55 0z"/>
<path d="M390 2639 c0 -12 -11 -34 -25 -50 -13 -16 -27 -45 -31 -65 -6 -33 -7
-34 -25 -18 -10 9 -44 27 -74 39 l-55 23 0 -25 c0 -13 -7 -38 -16 -54 -8 -17
-13 -33 -10 -37 7 -6 7 -7 33 39 15 27 18 40 10 48 -17 17 -6 13 61 -19 41
-20 66 -39 77 -60 8 -16 19 -30 23 -30 4 0 7 34 7 76 0 64 3 78 20 90 11 8 19
22 17 30 -2 11 1 13 15 6 10 -6 29 -15 43 -21 28 -13 75 -81 85 -123 4 -16 9
-28 12 -28 2 0 15 13 29 29 13 16 40 36 60 46 34 16 36 16 50 -2 13 -15 14
-59 10 -273 -3 -140 -11 -293 -17 -340 -10 -81 -5 -382 8 -416 11 -29 101 -13
128 22 11 14 55 8 55 -7 0 -5 7 -6 15 -3 13 5 13 9 3 22 -12 13 -11 14 9 2 17
-11 27 -11 47 -2 22 10 26 18 26 52 0 23 4 39 9 36 5 -4 7 2 4 13 -6 23 37
116 77 166 17 21 30 41 30 45 0 4 10 8 23 8 12 1 38 6 57 12 35 9 34 10 -10 5
-40 -3 -42 -3 -17 7 37 14 94 2 121 -25 13 -13 37 -68 56 -130 19 -59 36 -107
39 -107 4 0 17 16 31 35 28 40 55 50 105 41 35 -7 57 -23 74 -54 13 -23 20
-13 23 31 2 20 6 37 10 37 3 0 11 12 16 28 5 15 13 36 18 46 5 14 4 17 -4 12
-8 -5 -10 -2 -6 8 3 9 10 13 15 10 5 -3 12 2 15 11 16 40 119 60 161 30 12 -8
38 -42 58 -74 36 -61 82 -176 65 -166 -12 7 -13 -15 -2 -31 17 -26 92 -47 92
-26 0 12 38 8 52 -6 14 -14 38 -16 38 -3 0 5 -7 12 -16 15 -13 5 -14 15 -9 49
4 23 11 47 15 52 4 6 14 53 24 105 9 52 21 118 27 145 6 28 10 58 10 68 0 9 7
17 15 17 12 0 13 -26 10 -166 -6 -226 -16 -324 -31 -324 -6 0 -16 8 -21 18 -8
16 -12 17 -33 6 -24 -12 -24 -12 17 -33 66 -34 69 -31 77 57 9 108 13 111 14
10 1 -60 -3 -88 -11 -91 -10 -4 -10 -6 0 -6 9 -1 11 -13 7 -43 -4 -35 -4 -39
5 -20 15 34 14 538 -2 652 -16 123 -15 164 9 285 21 101 59 198 75 189 5 -3 6
-10 3 -15 -4 -5 1 -9 9 -9 9 0 20 -16 27 -39 7 -22 18 -42 25 -45 8 -3 33 17
59 47 42 49 105 97 105 81 0 -4 9 1 21 12 16 15 20 15 18 4 -1 -8 3 -28 10
-44 8 -20 8 -39 1 -64 -11 -42 -7 -51 17 -30 38 33 153 68 153 46 0 -4 -8 -8
-17 -8 -13 0 -15 -2 -5 -8 7 -5 15 -25 18 -44 5 -28 0 -47 -22 -86 -16 -28
-26 -53 -23 -57 3 -3 23 2 45 11 23 10 53 14 76 11 21 -3 38 -1 38 4 0 5 4 9
8 9 14 0 -15 -120 -35 -143 -10 -12 -52 -56 -95 -97 l-77 -75 -44 -133 c-24
-73 -46 -130 -49 -127 -3 3 -15 -17 -27 -46 -12 -28 -20 -53 -18 -56 3 -2 10
12 17 32 7 20 14 34 16 32 2 -2 -6 -32 -18 -65 -12 -35 -25 -57 -29 -50 -4 6
-7 -4 -6 -23 0 -19 -11 -63 -25 -99 -14 -36 -44 -118 -68 -182 -28 -78 -46
-116 -54 -111 -6 4 -49 30 -96 59 l-86 53 9 73 c5 40 13 80 17 89 9 17 4 29
-12 29 -5 0 -7 -3 -5 -7 3 -5 -7 -9 -21 -9 -38 -2 -72 -11 -88 -25 -10 -8 -14
-8 -14 -1 0 6 -7 9 -15 6 -8 -4 -15 -10 -15 -16 0 -5 4 -7 9 -3 11 6 83 -40
75 -48 -3 -3 -12 -3 -19 0 -8 2 -22 0 -32 -6 -14 -8 -15 -11 -3 -11 19 -1 -47
-30 -69 -30 -9 0 -41 -23 -71 -52 -46 -43 -200 -130 -236 -134 -5 -1 -36 -9
-69 -20 -44 -13 -92 -18 -180 -19 -110 0 -128 3 -215 33 -52 18 -113 46 -135
63 -22 16 -69 51 -104 77 -35 26 -76 54 -93 63 -16 10 -25 19 -21 21 4 3 2 3
-6 1 -19 -5 -91 19 -85 28 2 5 -4 17 -14 27 -18 18 -16 18 62 14 78 -4 104 9
28 14 -59 5 -99 14 -129 29 -39 21 -44 19 -33 -11 6 -15 13 -60 17 -100 4 -50
9 -71 17 -67 14 8 -6 -18 -59 -78 -22 -25 -60 -69 -85 -97 -25 -29 -49 -52
-54 -52 -5 0 -3 7 4 15 10 11 6 32 -19 102 -18 52 -33 121 -37 168 -4 44 -12
91 -19 105 -7 14 -31 99 -54 190 -81 324 -74 308 -155 415 -17 22 -58 69 -93
105 -64 67 -83 101 -83 150 0 59 58 74 108 28 28 -27 28 -23 -4 46 -27 59 -44
70 -26 17 10 -29 10 -30 -15 -20 -18 6 -30 6 -39 -2 -13 -10 -18 -6 -15 14 0
4 -4 7 -10 7 -5 0 -9 -8 -8 -17 2 -10 0 -31 -4 -46 -13 -50 11 -106 72 -171
31 -34 84 -99 117 -146 58 -83 61 -90 111 -280 29 -107 63 -256 77 -330 39
-212 58 -294 70 -309 8 -12 8 -13 -2 -7 -9 5 -20 -10 -38 -51 -14 -32 -34 -67
-45 -78 -18 -21 -18 -22 37 -119 30 -54 62 -105 70 -113 8 -8 14 -22 14 -30 0
-13 -4 -12 -23 5 -13 12 -24 28 -24 35 0 6 -26 51 -57 100 -102 155 -161 307
-191 487 -25 146 -17 358 19 494 19 75 23 103 15 118 -16 30 -27 12 -54 -96
-184 -725 287 -1448 1024 -1571 204 -34 472 -8 659 65 413 160 720 532 797
965 23 131 22 334 -4 464 -11 57 -22 106 -24 108 -3 2 -10 -9 -16 -25 -9 -22
-8 -48 4 -122 54 -338 -31 -677 -243 -958 -30 -40 -56 -71 -59 -69 -2 3 39 93
92 202 52 108 93 200 90 205 -3 5 -30 26 -60 46 -30 20 -57 39 -60 44 -5 8 48
178 66 211 7 13 6 19 -1 19 -6 0 -2 12 9 26 11 14 23 42 27 63 4 20 26 89 50
153 24 65 44 123 44 131 0 7 20 52 44 98 24 46 47 95 51 108 4 13 34 49 66 78
75 70 95 105 102 175 l5 56 -56 -3 c-31 -2 -67 -6 -79 -10 -28 -9 -28 -5 -2
39 17 29 19 44 13 95 l-6 60 -37 -3 c-20 -2 -53 -11 -75 -20 -21 -9 -40 -16
-41 -16 -1 0 0 11 2 24 3 13 -2 38 -11 55 -9 17 -13 31 -9 31 4 0 2 5 -3 10
-18 18 -105 -29 -161 -87 -45 -46 -53 -51 -53 -33 0 13 -17 40 -39 62 l-39 39
-32 -62 c-17 -33 -37 -91 -45 -128 -7 -36 -18 -78 -24 -93 -5 -15 -7 -42 -4
-61 3 -19 -4 -75 -16 -128 -11 -52 -26 -125 -32 -164 -6 -38 -17 -94 -25 -123
-7 -29 -11 -58 -9 -65 3 -7 1 -25 -3 -42 -7 -22 -11 2 -17 98 -5 85 -4 132 3
139 7 7 6 20 -3 42 -7 17 -20 74 -27 126 l-14 95 23 8 c13 5 21 13 17 18 -3 5
0 9 5 9 14 0 14 -27 1 -33 -6 -3 -5 -4 2 -3 7 1 14 11 16 22 3 18 -3 20 -48
20 -42 0 -47 -2 -31 -11 19 -10 19 -11 -11 -24 -27 -12 -28 -15 -13 -24 13 -7
14 -11 5 -17 -8 -5 -10 -15 -6 -26 4 -11 8 -21 8 -24 1 -3 8 -11 17 -19 9 -7
4 -6 -11 3 -35 20 -38 20 -38 -4 0 -11 5 -20 11 -20 5 0 8 -4 4 -9 -3 -6 3
-14 12 -20 10 -6 14 -11 10 -11 -18 0 -54 25 -101 71 -27 27 -58 49 -70 49
-40 0 -47 12 -37 64 9 49 21 73 21 42 0 -24 24 -14 28 12 2 12 9 19 16 16 9
-3 25 18 45 62 33 70 47 81 31 24 -11 -38 8 -80 35 -80 8 0 15 -4 15 -10 0 -5
-7 -7 -15 -4 -8 4 -15 2 -15 -4 0 -11 23 -22 46 -22 19 0 18 17 -6 117 -20 83
-55 153 -75 153 -6 0 -42 -42 -80 -92 -39 -51 -72 -95 -75 -98 -3 -3 -20 -27
-38 -54 -18 -27 -32 -46 -32 -42 0 4 -14 -4 -32 -19 -21 -18 -38 -25 -52 -20
-12 3 -52 8 -91 12 -73 6 -101 20 -158 77 -33 33 -46 28 -26 -11 7 -16 15 -31
17 -35 2 -4 -11 -5 -30 -2 -30 5 -31 4 -15 -9 16 -13 16 -15 1 -21 -8 -3 -51
-6 -93 -6 l-78 0 -64 73 c-111 126 -177 187 -194 181 -30 -12 -65 -113 -81
-237 -3 -23 -10 -46 -15 -51 -5 -6 -9 -42 -9 -82 0 -59 3 -73 17 -79 13 -4 25
2 40 21 27 35 23 41 -11 19 -14 -10 -26 -13 -26 -9 0 5 9 15 20 21 10 7 24 22
31 34 10 20 9 21 -20 17 -39 -6 -41 8 -2 17 27 6 31 12 36 53 4 26 11 62 15
81 8 28 6 36 -12 51 -17 13 -20 23 -14 52 7 41 35 80 42 60 3 -6 9 -10 14 -7
10 6 205 -214 204 -231 -1 -11 7 -12 38 -8 21 4 79 7 129 8 49 0 89 4 89 9 0
4 -4 7 -10 7 -16 0 -11 14 10 27 16 11 24 9 50 -13 19 -17 38 -24 51 -21 11 3
49 -3 85 -13 92 -27 123 -19 161 39 28 41 71 101 165 229 18 23 35 42 39 42
11 0 48 -63 43 -72 -3 -5 -9 -6 -14 -3 -5 3 -25 -15 -45 -40 -21 -25 -42 -42
-47 -39 -6 4 -5 -4 2 -17 11 -24 11 -24 -11 1 -17 19 -21 20 -15 6 8 -22 -10
-47 -29 -40 -9 4 -15 -9 -19 -40 -4 -25 -11 -46 -17 -46 -5 0 -8 -6 -6 -12 1
-7 -4 -12 -10 -11 -7 2 -13 -2 -13 -7 0 -6 9 -10 20 -10 10 0 23 -6 27 -13 4
-7 27 -19 51 -27 28 -9 54 -27 73 -51 16 -21 40 -41 52 -45 12 -4 28 -14 34
-23 12 -15 13 -15 7 0 -3 10 0 20 6 24 6 4 8 15 5 26 -4 10 -3 19 2 19 13 0
45 -132 34 -143 -6 -6 -15 2 -25 19 -22 41 -20 13 3 -38 21 -47 45 -219 40
-282 -4 -36 -7 -40 -34 -41 -58 -3 -69 7 -100 101 -37 111 -78 172 -135 202
l-44 22 61 0 c54 0 62 3 68 22 12 36 -42 66 -129 72 -36 3 -92 -18 -99 -36 -7
-21 11 -45 39 -52 26 -7 25 -8 -27 -34 -48 -24 -57 -34 -85 -92 -32 -66 -45
-75 -89 -59 -11 3 -44 0 -74 -8 -30 -7 -57 -10 -61 -6 -4 5 -16 33 -28 65 -23
63 -54 103 -94 124 -15 8 -25 20 -22 27 2 7 -4 21 -15 31 -51 46 -236 -25
-214 -81 4 -11 17 -14 44 -11 22 2 39 0 39 -4 0 -5 -4 -8 -9 -8 -17 0 -78
-103 -101 -170 -37 -108 -42 -120 -50 -115 -5 3 -27 -1 -49 -9 l-41 -14 0 93
c0 53 6 113 15 141 17 57 19 78 5 69 -5 -3 -10 -14 -10 -24 0 -10 -7 -32 -15
-47 -14 -27 -15 -23 -14 69 1 95 11 120 28 75 9 -23 9 -23 20 5 14 37 15 36
-11 30 -22 -4 -22 -4 1 10 24 14 24 15 -17 19 l-42 4 -2 -81 c0 -44 -2 -96 -2
-115 -1 -19 2 -38 7 -41 5 -3 10 -44 13 -90 4 -92 1 -87 -35 56 -43 170 -53
270 -55 538 -2 166 -6 261 -13 265 -6 4 -13 17 -17 28 -7 21 -7 21 -43 3 -20
-10 -48 -30 -62 -43 l-26 -25 -13 28 c-19 42 -81 111 -102 111 -9 0 -23 7 -30
15 -18 21 -30 19 -30 -6z m1610 -307 c0 -7 -4 -10 -10 -7 -5 3 -10 16 -10 28
0 18 2 19 10 7 5 -8 10 -21 10 -28z m-1117 -29 c8 -14 -30 -147 -43 -151 -9
-3 -11 1 -6 13 3 10 12 46 18 81 12 59 20 75 31 57z m961 -336 c22 -7 41 -18
44 -25 3 -11 -14 -12 -84 -7 -112 8 -120 11 -104 30 15 18 87 19 144 2z m-634
-17 c21 -13 14 -16 -78 -40 -104 -27 -130 -24 -83 9 47 34 131 50 161 31z
m-465 -160 c8 -36 26 -101 40 -145 14 -44 25 -86 25 -93 0 -7 -16 -20 -36 -28
-56 -24 -55 -28 -60 246 -1 105 7 171 14 110 1 -14 9 -54 17 -90z m650 -120
c-10 -11 -21 -17 -24 -14 -3 3 3 12 13 20 28 20 32 17 11 -6z m782 -252 c-3
-8 -6 -5 -6 6 -1 11 2 17 5 13 3 -3 4 -12 1 -19z m-13 -19 c9 -45 7 -99 -2
-99 -5 0 -17 9 -28 21 -18 20 -18 21 -1 34 16 12 16 14 -3 38 -21 26 -20 28
21 36 4 0 9 -13 13 -30z m-1389 -75 c-8 -13 -18 -24 -20 -24 -3 0 -5 20 -5 45
l0 45 21 -21 c19 -19 19 -22 4 -45z m87 7 c13 -5 33 -18 46 -29 l24 -21 -23
-30 c-17 -24 -28 -30 -43 -25 -18 6 -19 5 -7 -9 14 -18 18 -12 -117 -182 -35
-44 -74 -87 -86 -96 -27 -22 -166 -93 -169 -88 -2 2 -13 20 -24 40 l-21 37 51
42 c70 56 272 274 303 328 28 45 31 47 66 33z m1262 -26 c17 -14 36 -29 41
-33 44 -34 206 -140 228 -150 15 -7 52 -12 81 -12 29 0 55 -3 58 -6 3 -3 -8
-34 -26 -69 -28 -57 -35 -64 -68 -70 -23 -4 -46 -2 -61 7 -60 32 -306 224
-302 236 2 7 -3 12 -13 12 -18 0 -72 48 -72 64 0 7 78 45 94 46 4 0 22 -11 40
-25z m-1164 -45 c17 -10 14 -15 -17 -24 -25 -8 -26 -6 -17 18 7 18 13 19 34 6z
m1046 -27 c-8 -9 -46 18 -40 28 4 6 13 4 25 -7 11 -9 17 -19 15 -21z m-23 -2
c43 -22 34 -41 -19 -41 -40 0 -45 -2 -39 -17 4 -10 12 -30 17 -45 5 -16 14
-28 19 -28 4 0 5 8 2 18 -6 15 -5 16 13 2 10 -8 44 -37 74 -64 111 -100 310
-214 351 -201 l20 7 -21 -41 c-11 -23 -27 -41 -34 -41 -17 0 -97 32 -141 57
-80 44 -312 232 -298 242 5 3 6 20 2 36 l-7 30 -1 -28 c-1 -24 -4 -26 -20 -18
-14 8 -22 7 -31 -4 -10 -12 -24 -14 -61 -9 -41 5 -49 4 -49 -9 0 -11 -7 -14
-25 -11 -14 2 -25 0 -25 -6 0 -6 -4 -8 -10 -5 -6 4 -10 -7 -10 -24 0 -17 -2
-31 -5 -31 -2 0 -21 11 -41 25 -21 14 -45 24 -53 23 -18 -4 -28 -48 -12 -48 6
0 11 9 11 20 0 17 3 18 25 8 28 -13 32 -23 10 -32 -8 -3 -15 -1 -15 5 0 6 -8
3 -17 -8 -10 -10 -17 -17 -16 -14 4 7 -19 31 -29 31 -6 0 -8 -6 -5 -14 7 -17
-15 -15 -35 2 -8 6 -18 9 -21 5 -4 -3 -13 -1 -21 6 -11 9 -15 8 -20 -4 -3 -8
-17 -15 -31 -15 -14 0 -30 -9 -37 -19 -11 -18 -14 -17 -56 20 -25 21 -50 39
-56 39 -6 0 -24 -9 -41 -20 -41 -27 -45 -25 -45 14 0 19 -5 38 -11 41 -6 4 -8
14 -5 22 4 10 0 13 -13 11 -10 -2 -26 4 -35 12 -16 12 -23 12 -62 -2 -48 -17
-59 -11 -50 25 4 19 1 23 -21 25 -22 2 -93 37 -93 47 0 1 7 6 16 9 8 3 12 2 9
-4 -3 -6 1 -10 9 -10 9 0 16 4 16 10 0 5 11 12 25 16 19 5 40 -4 88 -35 64
-42 189 -92 275 -112 81 -18 218 -12 312 15 93 26 220 80 232 99 4 7 8 9 8 5
0 -4 15 6 32 23 18 16 35 28 38 26 3 -1 17 -9 33 -16z m294 -210 c87 -60 109
-71 143 -71 23 0 40 -3 38 -7 -3 -5 -10 -23 -17 -40 -11 -28 -18 -33 -47 -33
-40 0 -68 13 -179 84 -76 48 -266 200 -273 218 -2 5 9 8 25 7 15 0 42 3 58 8
27 9 35 5 90 -42 33 -29 106 -85 162 -124z m-1355 149 c18 -11 41 -20 51 -20
20 0 22 -11 5 -28 -9 -9 -9 -12 0 -12 21 0 13 -27 -15 -58 -16 -16 -45 -56
-66 -88 -64 -101 -82 -116 -247 -202 -36 -19 -70 -38 -77 -43 -8 -7 -20 7 -42
47 -17 32 -31 60 -31 63 0 3 39 26 87 51 85 44 91 49 193 177 58 73 106 132
107 133 2 0 17 -9 35 -20z m1529 -7 c12 -15 12 -16 -5 -10 -16 6 -17 5 -6 -8
10 -12 10 -15 -4 -15 -17 0 -20 9 -10 34 8 20 8 20 25 -1z m-1341 -73 c0 -5
-4 -10 -10 -10 -5 0 -10 5 -10 10 0 6 5 10 10 10 6 0 10 -4 10 -10z m866 -91
c181 -151 338 -248 383 -236 17 4 16 -1 -6 -52 -28 -62 -78 -113 -190 -191
-67 -47 -217 -130 -235 -130 -9 0 -9 181 1 225 4 21 20 39 55 62 27 18 53 30
58 27 4 -3 8 6 8 20 l0 24 -155 1 c-146 0 -155 -1 -155 -19 0 -11 18 -31 45
-50 64 -44 74 -68 77 -201 l3 -114 -75 -22 c-41 -12 -84 -22 -95 -22 -11 -1
-48 26 -85 62 -36 34 -137 130 -225 213 l-160 151 -133 2 c-127 2 -132 2 -132
-18 0 -16 10 -23 44 -32 29 -7 57 -25 84 -52 l41 -42 5 -132 5 -132 -70 24
c-158 54 -313 146 -434 259 -55 51 -67 67 -56 75 8 5 20 7 28 4 7 -3 15 2 19
10 3 9 12 13 20 10 7 -3 17 2 20 11 3 9 9 14 13 12 3 -2 24 9 46 25 22 16 49
33 60 38 29 13 71 60 144 162 51 70 75 95 104 106 35 14 39 14 58 -2 12 -12
17 -26 14 -39 -5 -18 -2 -17 17 7 30 34 37 34 36 -2 -1 -15 2 -33 6 -40 4 -6
1 -11 -6 -12 -10 0 -10 -2 0 -6 6 -2 12 -13 12 -24 0 -25 10 -24 38 5 l23 25
87 -51 c48 -28 113 -64 146 -80 l58 -30 42 31 c95 72 154 110 161 103 4 -4 3
3 -4 15 -14 27 -14 44 0 20 10 -17 13 -17 45 8 25 19 40 24 57 19 18 -6 20 -4
10 7 -7 9 -8 20 -4 28 6 9 11 10 15 2 14 -22 36 -11 37 17 0 24 1 25 8 7 5
-11 44 -50 87 -86z m-1458 56 c0 -22 -23 -53 -32 -44 -5 5 21 69 27 69 3 0 5
-11 5 -25z m1295 15 c8 0 7 -4 -1 -12 -9 -9 -16 -8 -30 6 -16 18 -16 19 1 12
10 -3 24 -6 30 -6z m-53 -30 c13 -8 12 -11 -5 -24 -18 -13 -21 -13 -27 2 -13
34 0 43 32 22z m-455 -60 c16 -16 25 -30 21 -30 -18 0 -76 42 -70 51 9 15 19
11 49 -21z m359 5 c3 -9 13 -12 23 -9 16 4 16 4 -1 -8 -10 -7 -39 -29 -65 -48
-57 -44 -98 -70 -108 -70 -5 0 -40 17 -80 38 -65 34 -70 39 -58 56 13 17 16
17 68 -13 30 -17 59 -31 64 -31 6 0 39 22 74 49 72 56 75 57 83 36z m-147 -17
c7 -5 17 -7 22 -4 5 4 12 2 16 -3 6 -11 -25 -31 -50 -31 -17 0 -105 37 -105
45 0 2 11 2 24 -1 14 -2 27 0 30 5 7 10 44 3 63 -11z m-162 -367 c72 -70 167
-161 213 -204 46 -43 82 -81 79 -83 -2 -2 -38 -7 -81 -11 l-77 -6 -67 65 c-37
35 -101 94 -142 129 -125 107 -112 112 -108 -39 3 -117 1 -130 -14 -129 -12 1
-14 5 -7 18 5 10 7 28 5 41 -3 13 -5 70 -5 127 l-1 104 -47 43 c-26 24 -65 50
-88 59 -39 14 -36 14 85 13 l125 -2 130 -125z m627 99 c-68 -49 -74 -65 -78
-203 -4 -157 -24 -174 -24 -20 0 132 -17 179 -79 218 -23 14 -41 27 -41 30 0
3 59 5 132 5 l131 0 -41 -30z m379 -33 c-10 -9 -11 -8 -5 6 3 10 9 15 12 12 3
-3 0 -11 -7 -18z m-1107 -176 c33 -32 98 -91 143 -132 44 -41 79 -76 76 -79
-3 -3 -8 1 -10 8 -3 6 -21 12 -41 12 -48 0 -207 21 -220 29 -10 6 -24 221 -15
221 3 0 33 -26 67 -59z"/>
<path d="M799 1216 c14 -15 26 -26 28 -26 9 0 -24 40 -37 45 -8 4 -4 -5 9 -19z"/>
<path d="M2114 1238 l-19 -23 23 19 c21 18 27 26 19 26 -2 0 -12 -10 -23 -22z"/>
<path d="M1865 1130 c-3 -6 1 -7 9 -4 18 7 21 14 7 14 -6 0 -13 -4 -16 -10z"/>
<path d="M2020 1155 c-17 -10 -20 -14 -9 -15 9 0 22 7 29 15 15 18 12 18 -20
0z"/>
<path d="M900 1098 c-23 -29 -46 -63 -51 -76 -5 -13 -46 -60 -91 -106 -61 -60
-101 -90 -151 -114 -70 -33 -81 -42 -48 -39 11 0 17 5 15 9 -3 4 3 8 14 8 52
0 216 143 279 244 32 51 69 96 75 91 2 -2 4 5 5 15 1 11 0 20 -2 20 -2 0 -22
-24 -45 -52z"/>
<path d="M337 2594 c-10 -14 -16 -30 -14 -37 4 -8 6 -7 6 2 1 8 8 23 18 33 9
10 14 20 12 22 -2 2 -12 -7 -22 -20z"/>
<path d="M2579 2601 c16 -4 29 -19 37 -41 7 -19 13 -30 13 -24 1 6 -4 25 -10
43 -9 25 -16 31 -37 30 l-27 -1 24 -7z"/>
<path d="M2510 2583 c-19 -8 -51 -30 -71 -49 -31 -31 -37 -33 -49 -19 -7 8
-16 15 -21 15 -5 0 0 -9 12 -21 l20 -20 39 35 c22 20 55 42 75 50 19 8 35 17
35 20 0 4 -1 6 -2 5 -2 0 -19 -7 -38 -16z"/>
<path d="M164 2563 c-3 -16 -12 -45 -20 -66 -8 -20 -14 -49 -14 -62 0 -28 0
-28 -33 -16 -36 14 -44 2 -50 -74 l-6 -70 12 70 c7 39 17 69 22 68 6 -1 23 -5
38 -8 25 -7 27 -5 27 24 0 18 7 48 15 68 8 19 15 44 15 55 0 26 25 33 52 14
12 -9 27 -16 33 -16 5 0 -5 9 -23 20 -44 27 -60 25 -68 -7z"/>
<path d="M2282 2568 c-7 -7 -12 -17 -12 -22 0 -6 5 -3 11 7 13 21 27 22 51 0
22 -20 24 -11 2 11 -19 19 -36 20 -52 4z"/>
<path d="M278 2543 c7 -3 16 -2 19 1 4 3 -2 6 -13 5 -11 0 -14 -3 -6 -6z"/>
<path d="M415 2516 c-20 -48 -19 -63 8 -80 26 -18 80 -8 85 15 3 20 -33 75
-58 89 -18 10 -22 7 -35 -24z m58 -24 c21 -36 16 -52 -18 -52 -31 0 -38 14
-30 56 7 42 22 40 48 -4z"/>
<path d="M1879 2488 c-25 -29 -74 -92 -108 -141 -82 -113 -106 -130 -174 -124
l-52 6 52 -11 c49 -10 55 -9 86 15 19 14 66 70 105 124 110 152 135 177 165
171 15 -3 24 -1 21 3 -14 24 -53 6 -95 -43z"/>
<path d="M2630 2508 c0 -20 27 -24 50 -7 12 8 10 9 -9 4 -15 -5 -27 -2 -32 6
-7 11 -9 10 -9 -3z"/>
<path d="M2757 2513 c18 -4 22 -13 28 -63 4 -32 4 -73 0 -89 l-7 -31 66 0 c61
0 65 -1 69 -25 4 -23 4 -23 3 2 -1 27 -3 28 -62 31 l-61 3 4 42 c2 23 0 62 -4
87 -7 39 -12 45 -33 46 -20 1 -21 0 -3 -3z"/>
<path d="M616 2494 c-8 -21 -8 -24 3 -24 5 0 11 9 14 20 6 24 -8 27 -17 4z"/>
<path d="M2503 2502 c-7 -4 -19 -24 -28 -45 -15 -37 -15 -37 10 -49 34 -15 79
0 83 28 3 19 -32 74 -46 74 -4 0 -12 -4 -19 -8z m42 -46 c10 -29 -3 -46 -37
-46 -20 0 -23 17 -8 55 12 32 32 28 45 -9z"/>
<path d="M2571 2494 c0 -11 3 -14 6 -6 3 7 2 16 -1 19 -3 4 -6 -2 -5 -13z"/>
<path d="M920 2477 c0 -2 19 -17 43 -32 23 -16 37 -22 30 -14 -12 15 -73 53
-73 46z"/>
<path d="M865 2450 c-10 -11 -16 -22 -14 -24 2 -2 12 7 22 20 22 29 17 32 -8
4z"/>
<path d="M2011 2465 c1 -19 18 -51 18 -35 0 8 -4 22 -9 30 -5 8 -9 11 -9 5z"/>
<path d="M2222 2450 c0 -14 2 -19 5 -12 2 6 2 18 0 25 -3 6 -5 1 -5 -13z"/>
<path d="M604 2435 c-32 -49 1 -83 46 -47 18 14 22 25 16 45 -8 35 -40 36 -62
2z m46 -9 c0 -30 -26 -54 -42 -38 -8 8 -6 18 6 36 21 32 36 33 36 2z"/>
<path d="M217 2418 c-4 -26 0 -38 19 -55 27 -24 44 -29 44 -13 0 5 6 7 13 4 8
-3 19 1 25 9 9 10 4 22 -19 50 -40 49 -75 51 -82 5z m68 -10 c25 -30 26 -33 9
-39 -48 -19 -65 -3 -56 49 6 30 15 28 47 -10z"/>
<path d="M555 2434 c9 -9 19 -13 23 -10 3 4 0 11 -8 16 -24 15 -33 11 -15 -6z"/>
<path d="M2330 2444 c0 -16 28 -50 35 -42 4 4 -2 17 -14 29 -12 13 -21 18 -21
13z"/>
<path d="M340 2417 c0 -9 46 -4 56 6 4 3 -7 5 -25 4 -17 -1 -31 -6 -31 -10z"/>
<path d="M2192 2335 c-13 -46 -22 -94 -19 -107 4 -20 4 -19 6 5 0 16 10 60 22
98 11 38 19 73 17 78 -1 6 -13 -27 -26 -74z"/>
<path d="M2270 2400 c-15 -28 -9 -74 10 -77 8 -2 26 6 39 17 21 18 22 23 11
50 -15 35 -44 40 -60 10z m44 -12 c3 -15 -1 -30 -14 -43 -20 -19 -20 -19 -20
16 0 51 22 69 34 27z"/>
<path d="M2632 2400 c-25 -21 -29 -65 -6 -74 46 -18 81 7 70 49 -9 36 -36 47
-64 25z m44 -24 c7 -31 -1 -46 -27 -46 -22 0 -27 38 -7 58 18 18 27 15 34 -12z"/>
<path d="M836 2395 c-3 -9 -6 -22 -5 -28 0 -7 5 -1 10 12 5 13 8 26 5 28 -2 2
-6 -3 -10 -12z"/>
<path d="M1000 2407 c0 -2 15 -16 33 -33 l32 -29 -29 33 c-28 30 -36 37 -36
29z"/>
<path d="M2032 2390 c0 -14 2 -19 5 -12 2 6 2 18 0 25 -3 6 -5 1 -5 -13z"/>
<path d="M744 2250 c0 -63 1 -89 3 -57 2 31 2 83 0 115 -2 31 -3 5 -3 -58z"/>
<path d="M2041 2344 c0 -11 3 -14 6 -6 3 7 2 16 -1 19 -3 4 -6 -2 -5 -13z"/>
<path d="M822 2330 c0 -14 2 -19 5 -12 2 6 2 18 0 25 -3 6 -5 1 -5 -13z"/>
<path d="M463 2308 c-21 -18 -40 -34 -42 -35 -2 -2 -1 -6 2 -9 4 -4 13 -2 20
4 8 7 16 10 19 7 2 -3 15 6 28 20 13 14 28 25 33 25 35 0 50 -98 21 -138 -17
-25 -74 -58 -74 -42 0 5 -16 2 -35 -7 -33 -16 -36 -15 -55 2 -23 21 -37 82
-23 104 5 9 21 19 34 22 l24 7 -26 1 c-33 1 -52 -21 -51 -59 1 -49 12 -70 45
-91 37 -22 19 -26 -22 -4 -32 16 -41 33 -41 78 -1 27 -2 29 -11 14 -14 -25 6
-81 36 -101 31 -20 59 -20 79 -1 8 9 32 17 52 19 62 5 119 93 100 153 -9 27
-44 63 -61 63 -8 0 -31 -14 -52 -32z"/>
<path d="M1070 2331 c0 -16 119 -123 131 -118 10 4 10 6 -2 6 -9 1 -41 28 -72
60 -32 33 -57 56 -57 52z"/>
<path d="M108 2323 c7 -3 16 -2 19 1 4 3 -2 6 -13 5 -11 0 -14 -3 -6 -6z"/>
<path d="M1330 2321 c0 -5 9 -7 21 -4 14 4 31 -4 52 -23 18 -17 41 -36 52 -44
11 -8 -2 6 -30 32 -45 43 -95 63 -95 39z"/>
<path d="M2431 2313 c-27 -23 -59 -102 -52 -128 19 -66 88 -111 154 -99 74 12
135 98 94 133 -8 6 -29 14 -48 17 -19 4 -40 11 -46 17 -9 6 -13 6 -13 -1 0
-10 40 -29 75 -34 26 -4 36 -48 15 -69 -18 -19 -92 -49 -121 -49 -11 0 -39 18
-62 39 l-42 40 19 53 c30 86 57 106 91 68 10 -11 20 -18 23 -15 9 9 -30 45
-48 45 -10 0 -27 -8 -39 -17z"/>
<path d="M2052 2300 c0 -14 2 -19 5 -12 2 6 2 18 0 25 -3 6 -5 1 -5 -13z"/>
<path d="M147 2297 c-11 -29 7 -83 31 -92 34 -13 68 59 39 83 -23 19 -64 25
-70 9z m63 -27 c7 -13 4 -22 -10 -35 -17 -16 -19 -16 -29 4 -19 34 -14 60 9
54 11 -3 25 -13 30 -23z"/>
<path d="M811 2284 c0 -11 3 -14 6 -6 3 7 2 16 -1 19 -3 4 -6 -2 -5 -13z"/>
<path d="M1331 2284 c0 -11 3 -14 6 -6 3 7 2 16 -1 19 -3 4 -6 -2 -5 -13z"/>
<path d="M915 2260 c13 -42 67 -99 90 -93 16 3 17 2 5 -6 -12 -9 -10 -11 10
-12 21 -1 22 -2 5 -6 -47 -12 -36 -19 38 -26 9 -1 17 -4 17 -8 0 -10 -47 -39
-64 -39 -16 0 -67 -79 -70 -107 0 -9 5 -18 12 -20 7 -3 10 1 6 10 -3 8 0 18 5
22 6 3 17 21 25 39 10 23 22 35 42 39 16 4 37 18 47 32 18 25 18 25 -10 51
-15 15 -27 30 -26 35 2 6 -37 25 -44 21 -2 -1 -23 20 -49 46 -38 39 -45 43
-39 22z"/>
<path d="M2060 2261 c0 -6 4 -13 10 -16 6 -3 7 1 4 9 -7 18 -14 21 -14 7z"/>
<path d="M2545 2260 c3 -5 16 -10 28 -10 18 0 19 2 7 10 -20 13 -43 13 -35 0z"/>
<path d="M2902 2237 c-3 -53 -21 -82 -92 -152 -54 -52 -98 -120 -86 -132 2 -2
11 13 19 34 9 21 43 65 77 97 73 71 92 105 87 154 l-4 37 -1 -38z"/>
<path d="M1300 2243 c0 -12 3 -14 8 -7 4 7 16 14 27 17 15 4 14 5 -7 6 -21 1
-28 -4 -28 -16z"/>
<path d="M2715 2240 c-16 -18 -17 -23 -5 -45 14 -27 34 -36 65 -31 15 2 21 12
23 39 3 32 0 38 -23 47 -36 14 -39 13 -60 -10z m63 -32 c3 -24 0 -28 -23 -28
-27 0 -41 20 -31 46 10 27 51 13 54 -18z"/>
<path d="M801 2234 c0 -11 3 -14 6 -6 3 7 2 16 -1 19 -3 4 -6 -2 -5 -13z"/>
<path d="M60 2234 c0 -15 51 -83 85 -114 15 -14 42 -48 61 -77 19 -28 42 -57
52 -65 9 -7 3 5 -14 27 -17 22 -40 56 -52 76 -12 20 -37 49 -56 65 -18 16 -43
45 -55 64 -11 19 -21 30 -21 24z"/>
<path d="M1258 2223 c7 -3 16 -2 19 1 4 3 -2 6 -13 5 -11 0 -14 -3 -6 -6z"/>
<path d="M1410 2206 c0 -9 5 -16 10 -16 6 0 10 4 10 9 0 6 -4 13 -10 16 -5 3
-10 -1 -10 -9z"/>
<path d="M791 2194 c0 -11 3 -14 6 -6 3 7 2 16 -1 19 -3 4 -6 -2 -5 -13z"/>
<path d="M2172 2160 c0 -14 2 -19 5 -12 2 6 2 18 0 25 -3 6 -5 1 -5 -13z"/>
<path d="M782 2140 c0 -19 2 -27 5 -17 2 9 2 25 0 35 -3 9 -5 1 -5 -18z"/>
<path d="M1098 2143 c7 -3 16 -2 19 1 4 3 -2 6 -13 5 -11 0 -14 -3 -6 -6z"/>
<path d="M743 2070 c0 -36 2 -50 4 -32 2 17 2 47 0 65 -2 17 -4 3 -4 -33z"/>
<path d="M2080 2111 c0 -11 4 -22 9 -25 4 -3 6 6 3 19 -5 30 -12 33 -12 6z"/>
<path d="M2162 2110 c0 -14 2 -19 5 -12 2 6 2 18 0 25 -3 6 -5 1 -5 -13z"/>
<path d="M2609 2103 c-13 -16 -12 -17 4 -4 16 13 21 21 13 21 -2 0 -10 -8 -17
-17z"/>
<path d="M290 2035 c30 -38 55 -72 57 -74 2 -2 3 2 3 10 -1 8 -26 41 -57 74
l-56 60 53 -70z"/>
<path d="M2152 2060 c0 -14 2 -19 5 -12 2 6 2 18 0 25 -3 6 -5 1 -5 -13z"/>
<path d="M773 2025 c0 -27 2 -38 4 -22 2 15 2 37 0 50 -2 12 -4 0 -4 -28z"/>
<path d="M2091 2054 c0 -11 3 -14 6 -6 3 7 2 16 -1 19 -3 4 -6 -2 -5 -13z"/>
<path d="M2102 2010 c0 -14 2 -19 5 -12 2 6 2 18 0 25 -3 6 -5 1 -5 -13z"/>
<path d="M2142 2010 c0 -14 2 -19 5 -12 2 6 2 18 0 25 -3 6 -5 1 -5 -13z"/>
<path d="M663 1960 c0 -25 2 -35 4 -22 2 12 2 32 0 45 -2 12 -4 2 -4 -23z"/>
<path d="M913 1963 c-9 -16 -26 -38 -37 -50 -18 -21 -18 -23 -2 -23 9 0 14 -4
11 -10 -3 -5 -4 -10 -1 -10 3 0 12 13 21 30 11 21 20 28 33 24 13 -5 14 -4 3
4 -8 6 -12 20 -9 36 7 33 3 33 -19 -1z"/>
<path d="M752 1960 c0 -14 2 -19 5 -12 2 6 2 18 0 25 -3 6 -5 1 -5 -13z"/>
<path d="M2116 1968 c3 -4 9 -8 15 -8 5 0 9 4 9 8 0 5 -7 9 -15 9 -8 0 -12 -4
-9 -9z"/>
<path d="M2117 1923 c-4 -3 -7 -25 -6 -47 l1 -41 9 44 c9 45 8 56 -4 44z"/>
<path d="M2696 1903 c-6 -14 -5 -15 5 -6 7 7 10 15 7 18 -3 3 -9 -2 -12 -12z"/>
<path d="M311 1864 c0 -11 3 -14 6 -6 3 7 2 16 -1 19 -3 4 -6 -2 -5 -13z"/>
<path d="M321 1824 c0 -11 3 -14 6 -6 3 7 2 16 -1 19 -3 4 -6 -2 -5 -13z"/>
<path d="M331 1784 c0 -11 3 -14 6 -6 3 7 2 16 -1 19 -3 4 -6 -2 -5 -13z"/>
<path d="M2631 1759 c-6 -18 -11 -37 -10 -43 0 -6 7 7 15 28 8 22 12 41 10 43
-2 2 -9 -10 -15 -28z"/>
<path d="M1048 1715 c-17 -37 -28 -68 -26 -70 2 -3 18 27 35 65 40 89 32 92
-9 5z"/>
<path d="M341 1750 c0 -8 4 -22 9 -30 12 -18 12 -2 0 25 -6 13 -9 15 -9 5z"/>
<path d="M1705 1715 c-19 -43 -8 -102 22 -122 20 -14 24 -13 48 11 25 25 36
86 15 86 -5 0 -10 -4 -10 -10 0 -12 -10 -13 -29 -1 -19 12 -4 54 17 47 13 -5
12 -2 -2 9 -30 23 -46 18 -61 -20z m55 -81 c0 -8 -6 -14 -14 -14 -16 0 -29 27
-20 41 8 13 34 -9 34 -27z"/>
<path d="M1144 1715 c-10 -15 -14 -40 -12 -71 3 -41 7 -51 31 -64 27 -14 29
-14 48 9 23 29 28 101 4 81 -18 -15 -35 -5 -35 22 0 16 5 19 21 15 16 -4 18
-3 9 8 -20 25 -50 25 -66 0z m46 -103 c0 -26 -25 -5 -28 24 -2 28 -2 28 13 10
8 -11 15 -26 15 -34z"/>
<path d="M2597 1658 c-9 -23 -15 -43 -13 -45 2 -2 11 15 20 38 9 23 15 43 13
45 -2 2 -11 -15 -20 -38z"/>
<path d="M366 1660 c4 -19 11 -44 15 -55 6 -14 7 -9 3 15 -4 19 -11 44 -15 55
-6 14 -7 9 -3 -15z"/>
<path d="M1007 1611 c-4 -17 -3 -21 5 -13 5 5 8 16 6 23 -3 8 -7 3 -11 -10z"/>
<path d="M391 1564 c0 -11 3 -14 6 -6 3 7 2 16 -1 19 -3 4 -6 -2 -5 -13z"/>
<path d="M1861 1515 c-6 -28 -14 -58 -17 -67 -3 -10 -1 -18 5 -18 11 0 35 103
29 122 -3 7 -10 -10 -17 -37z"/>
<path d="M1898 1505 c-8 -27 -13 -54 -10 -59 8 -14 33 65 29 89 -2 13 -9 3
-19 -30z"/>
<path d="M402 1515 c0 -16 2 -22 5 -12 2 9 2 23 0 30 -3 6 -5 -1 -5 -18z"/>
<path d="M1052 1495 c-14 -54 -15 -68 -3 -61 4 3 11 20 14 38 3 18 8 41 12 51
4 9 3 17 -2 17 -5 0 -14 -20 -21 -45z"/>
<path d="M1097 1533 c-4 -7 -20 -70 -21 -85 -1 -3 -4 -10 -8 -14 -11 -10 -10
-34 1 -34 9 0 45 130 37 137 -2 2 -6 1 -9 -4z"/>
<path d="M1403 1533 c-25 -10 -14 -52 17 -68 27 -14 30 -20 30 -64 0 -29 -6
-53 -14 -60 -25 -21 -100 -29 -152 -15 -27 7 -50 13 -51 14 -2 0 -3 -4 -3 -9
0 -10 76 -31 110 -31 12 0 35 -11 52 -25 44 -37 110 -35 139 4 17 24 28 29 66
29 54 1 83 10 83 24 0 7 -10 7 -27 2 -45 -14 -138 -9 -164 8 -20 13 -24 23
-23 63 1 38 6 49 24 58 30 15 45 40 37 61 -5 12 -19 16 -59 15 -29 0 -59 -3
-65 -6z m57 -38 c0 -8 -4 -15 -9 -15 -5 0 -11 7 -15 15 -3 9 0 15 9 15 8 0 15
-7 15 -15z m40 0 c-7 -8 -17 -15 -23 -15 -6 0 -2 7 9 15 25 19 30 19 14 0z
m24 -187 c14 -11 -35 -47 -64 -48 -25 0 -70 24 -70 38 0 4 13 13 29 19 29 10
30 10 34 -21 4 -29 4 -29 5 6 2 37 2 37 30 26 15 -7 31 -15 36 -20z"/>
<path d="M1826 1523 c-13 -49 -18 -87 -8 -78 11 11 27 95 19 95 -3 0 -8 -8
-11 -17z"/>
<path d="M2553 1525 c-3 -9 -3 -18 -1 -21 3 -3 8 4 11 16 6 23 -1 27 -10 5z"/>
<path d="M1137 1523 c-11 -18 -18 -93 -9 -93 5 0 12 21 15 48 5 47 3 61 -6 45z"/>
<path d="M412 1460 c0 -14 2 -19 5 -12 2 6 2 18 0 25 -3 6 -5 1 -5 -13z"/>
<path d="M422 1410 c0 -14 2 -19 5 -12 2 6 2 18 0 25 -3 6 -5 1 -5 -13z"/>
<path d="M2516 1415 c-9 -26 -7 -32 5 -12 6 10 9 21 6 23 -2 3 -7 -2 -11 -11z"/>
<path d="M2437 1403 c-10 -9 -9 -23 2 -23 5 0 11 7 15 15 5 15 -5 20 -17 8z"/>
<path d="M432 1350 c0 -14 2 -19 5 -12 2 6 2 18 0 25 -3 6 -5 1 -5 -13z"/>
<path d="M2486 1335 c-3 -9 -6 -22 -5 -28 0 -7 5 -1 10 12 5 13 8 26 5 28 -2
2 -6 -3 -10 -12z"/>
<path d="M442 1300 c0 -14 4 -36 8 -50 6 -20 8 -21 8 -5 0 11 -4 34 -8 50 -7
27 -8 27 -8 5z"/>
<path d="M2466 1275 c-3 -9 -6 -22 -5 -28 0 -7 5 -1 10 12 5 13 8 26 5 28 -2
2 -6 -3 -10 -12z"/>
<path d="M2451 1214 c0 -11 3 -14 6 -6 3 7 2 16 -1 19 -3 4 -6 -2 -5 -13z"/>
<path d="M2474 1191 c7 -11 46 -35 46 -28 0 3 -12 12 -26 22 -15 9 -23 12 -20
6z"/>
<path d="M472 1160 c0 -14 2 -19 5 -12 2 6 2 18 0 25 -3 6 -5 1 -5 -13z"/>
<path d="M2548 1138 c12 -13 22 -32 22 -41 0 -10 -18 -54 -41 -98 -22 -45 -39
-83 -37 -85 2 -2 24 36 47 85 48 96 50 131 8 152 l-22 12 23 -25z"/>
<path d="M1358 1113 c7 -3 16 -2 19 1 4 3 -2 6 -13 5 -11 0 -14 -3 -6 -6z"/>
<path d="M466 1083 c-6 -14 -5 -15 5 -6 7 7 10 15 7 18 -3 3 -9 -2 -12 -12z"/>
<path d="M429 1008 c-7 -13 -17 -26 -23 -30 -8 -5 -7 -8 1 -8 7 0 19 14 28 30
9 17 13 30 11 30 -3 0 -11 -10 -17 -22z"/>
</g>
</svg>
