<svg width="465" height="464" viewBox="0 0 465 464" fill="none" xmlns="http://www.w3.org/2000/svg">
<g clip-path="url(#clip0_9_319)">
<path d="M464.056 232.001C464.136 286.765 444.765 339.778 409.396 381.588C408.111 383.114 406.803 384.617 405.47 386.108C389.788 403.745 371.521 418.899 351.292 431.055C346.652 433.841 341.91 436.466 337.067 438.93C336.577 439.179 336.08 439.427 335.59 439.668C335.004 439.966 334.41 440.254 333.816 440.544C321.56 446.543 308.793 451.439 295.668 455.173C294.304 455.559 292.936 455.934 291.567 456.297C274.301 460.865 256.565 463.421 238.712 463.914C237.781 463.938 236.866 463.954 235.983 463.971C235.67 463.979 235.365 463.987 235.06 463.987C234.056 463.994 233.062 464.003 232.057 464.003C213.244 464.017 194.498 461.745 176.233 457.236C174.403 456.786 172.58 456.313 170.766 455.815C161.21 453.206 151.832 449.98 142.693 446.158C137.877 444.151 133.146 441.986 128.5 439.663C127.449 439.134 126.397 438.604 125.361 438.058C124.92 437.841 124.486 437.607 124.053 437.384C99.2942 424.316 77.0912 406.895 58.5071 385.957C57.2228 384.52 55.9622 383.057 54.7178 381.59C34.2414 357.312 18.9674 329.089 9.84172 298.669C0.716024 268.248 -2.06701 236.277 1.66496 204.737C5.39692 173.197 15.5644 142.76 31.5378 115.309C47.5111 87.8578 68.9501 63.9786 94.5271 45.1501C95.8437 44.1789 97.1693 43.2167 98.5091 42.2759L99.3037 41.7223C122.86 25.2221 149.299 13.2822 177.252 6.52068C178.842 6.12757 180.431 5.75831 182.037 5.41288C212.315 -1.20943 243.607 -1.75705 274.098 3.80177C275.696 4.09886 277.293 4.40367 278.883 4.73299C306.587 10.4154 333.009 21.145 356.831 36.3863C357.361 36.7233 357.891 37.0603 358.421 37.4135C359.488 38.1037 360.556 38.81 361.607 39.5247C393.164 60.7402 419.016 89.3948 436.882 122.961C454.749 156.528 464.081 193.975 464.056 232.001Z" fill="#F2F2F2"/>
<path d="M173.454 352.022L99.3023 358.605L98.5077 358.677V42.2737L99.3023 41.7201C114.756 30.9107 131.473 22.0306 149.082 15.2772L152.873 67.5366L153.218 72.321L156.967 124.148L158.123 140.091L173.317 350.176L173.454 352.022Z" fill="#D6D6E3"/>
<path d="M356.83 36.3809C357.36 36.7179 357.889 37.055 358.419 37.4081V358.677L356.83 358.532L283.481 352.024L283.618 350.177L298.815 140.093L299.971 124.15L303.719 72.3229L304.065 67.5353L308.038 12.7303C325.175 18.6708 341.552 26.6092 356.831 36.3815L356.83 36.3809Z" fill="#D6D6E3"/>
<path d="M356.827 36.3815V363.06C356.827 369.329 352.51 374.427 347.194 374.427H108.935C104.536 374.427 100.803 370.927 99.6716 366.15C99.4243 365.138 99.3003 364.099 99.3023 363.057V41.7175L98.5077 42.2711C97.1672 43.2101 95.8423 44.1735 94.5257 45.1454V363.06C94.4548 367.822 96.2336 372.426 99.4879 375.904C101.194 377.691 103.352 378.982 105.733 379.642C106.777 379.926 107.854 380.069 108.936 380.067H347.197C348.281 380.068 349.361 379.925 350.408 379.642C356.814 377.916 361.607 371.14 361.607 363.057V39.5206C360.555 38.8059 359.487 38.1028 358.42 37.4094C357.889 37.0556 357.36 36.7186 356.827 36.3815Z" fill="#D6D6E3"/>
<path d="M359.22 67.5399H96.9146V72.3236H359.22V67.5399Z" fill="#D6D6E3"/>
<path d="M177.251 6.51857C178.84 6.12545 180.43 5.75619 182.035 5.41077V135.305H177.251V6.51857Z" fill="#D6D6E3"/>
<path d="M274.097 3.79706C275.694 4.09415 277.292 4.39898 278.881 4.72829V135.309H274.097V3.79706Z" fill="#D6D6E3"/>
<path d="M389.117 350.175H74.9867C69.2765 350.175 63.8003 352.444 59.7626 356.481C55.7248 360.519 53.4565 365.995 53.4565 371.706C53.4565 377.416 55.7248 382.892 59.7626 386.93C63.8003 390.968 69.2765 393.236 74.9867 393.236H389.117C392.176 393.236 395.199 392.584 397.985 391.322C400.771 390.061 403.255 388.219 405.272 385.919C406.184 384.882 406.995 383.76 407.693 382.568C408.235 381.654 408.705 380.698 409.098 379.711C410.41 376.445 410.9 372.907 410.526 369.407C410.152 365.908 408.925 362.553 406.953 359.638C404.981 356.723 402.324 354.336 399.215 352.687C396.106 351.037 392.64 350.176 389.121 350.177L389.117 350.175Z" fill="#D6D6E3"/>
<path d="M359.22 124.147H98.5089V140.093H359.22V124.147Z" fill="#D6D6E3"/>
<path d="M226.472 119.364H231.256C232.408 119.364 233.548 119.591 234.612 120.031C235.677 120.472 236.643 121.118 237.458 121.933C238.272 122.747 238.918 123.714 239.359 124.778C239.8 125.842 240.026 126.983 240.026 128.135H217.702C217.702 125.809 218.626 123.578 220.271 121.933C221.916 120.288 224.146 119.364 226.472 119.364Z" fill="#D6D6E3"/>
<path d="M409.395 381.588C402.421 389.85 394.878 397.616 386.821 404.826H77.2906C69.2337 397.616 61.6908 389.85 54.717 381.588H409.395Z" fill="#3F3D56"/>
<path d="M257.969 301.094H205.853C205.573 301.091 205.293 301.135 205.027 301.223C204.461 301.398 203.967 301.75 203.615 302.227C203.264 302.704 203.075 303.28 203.076 303.872V386.204H260.754V303.872C260.753 303.506 260.681 303.145 260.541 302.807C260.401 302.47 260.195 302.164 259.937 301.906C259.678 301.648 259.371 301.443 259.033 301.304C258.695 301.165 258.334 301.094 257.969 301.094ZM238.245 341.714C238.247 343.049 237.807 344.348 236.993 345.406C236.216 346.434 235.137 347.192 233.907 347.573C232.676 347.955 231.358 347.941 230.136 347.533C228.914 347.125 227.851 346.344 227.097 345.3C226.342 344.256 225.935 343.002 225.931 341.714V332.161C225.931 330.528 226.58 328.962 227.735 327.807C228.889 326.652 230.455 326.004 232.088 326.004C233.721 326.004 235.288 326.652 236.442 327.807C237.597 328.962 238.246 330.528 238.246 332.161L238.245 341.714Z" fill="#2F2E41"/>
<path d="M202.899 383.57V391.51C202.899 391.921 203.062 392.316 203.351 392.608C203.641 392.9 204.035 393.065 204.446 393.068H259.379C259.79 393.064 260.183 392.898 260.472 392.606C260.762 392.315 260.925 391.921 260.926 391.51V383.57H202.899Z" fill="#3F3D56"/>
<path d="M344.267 172.611H121.499C119.585 172.613 117.749 173.374 116.395 174.727C115.041 176.08 114.278 177.915 114.274 179.829V330.154C114.276 332.07 115.037 333.907 116.392 335.261C117.746 336.616 119.583 337.378 121.499 337.379H344.267C346.182 337.378 348.019 336.616 349.374 335.261C350.728 333.907 351.49 332.07 351.491 330.154V179.828C351.487 177.914 350.724 176.08 349.37 174.727C348.016 173.374 346.181 172.613 344.267 172.611Z" fill="#3F3D56"/>
<path d="M342.404 177.829H123.354C122.329 177.83 121.347 178.238 120.623 178.963C119.899 179.688 119.492 180.671 119.492 181.696V328.3C119.494 329.324 119.901 330.305 120.625 331.029C121.349 331.753 122.33 332.16 123.354 332.161H342.404C343.428 332.16 344.409 331.752 345.133 331.029C345.857 330.305 346.264 329.323 346.266 328.3V181.698C346.266 180.674 345.859 179.691 345.135 178.966C344.411 178.241 343.429 177.833 342.405 177.832L342.404 177.829Z" fill="#6C63FF"/>
<path d="M302.089 392.937L300.066 383.328C299.982 382.936 299.801 382.572 299.54 382.268C299.28 381.964 298.947 381.73 298.573 381.588C298.302 381.481 298.013 381.427 297.722 381.427H171.439C171.148 381.427 170.859 381.481 170.588 381.588C170.214 381.73 169.881 381.964 169.621 382.268C169.36 382.572 169.179 382.936 169.095 383.328L167.072 392.937C166.999 393.286 167.005 393.646 167.088 393.993C167.172 394.339 167.332 394.662 167.557 394.939C167.781 395.216 168.065 395.439 168.386 395.593C168.708 395.746 169.06 395.826 169.416 395.827H299.737C300.094 395.828 300.448 395.749 300.77 395.595C301.093 395.44 301.376 395.215 301.599 394.935C301.824 394.66 301.985 394.337 302.069 393.992C302.154 393.646 302.161 393.285 302.089 392.937Z" fill="#2F2E41"/>
<path d="M176.064 383.158H172.679C172.506 383.158 172.365 383.299 172.365 383.473V385.252C172.365 385.426 172.506 385.566 172.679 385.566H176.064C176.238 385.566 176.378 385.426 176.378 385.252V383.473C176.378 383.299 176.238 383.158 176.064 383.158Z" fill="#3F3D56"/>
<path d="M184.091 383.158H180.707C180.533 383.158 180.392 383.299 180.392 383.473V385.252C180.392 385.426 180.533 385.566 180.707 385.566H184.091C184.265 385.566 184.406 385.426 184.406 385.252V383.473C184.406 383.299 184.265 383.158 184.091 383.158Z" fill="#3F3D56"/>
<path d="M192.119 383.158H188.734C188.561 383.158 188.42 383.299 188.42 383.473V385.252C188.42 385.426 188.561 385.566 188.734 385.566H192.119C192.293 385.566 192.434 385.426 192.434 385.252V383.473C192.434 383.299 192.293 383.158 192.119 383.158Z" fill="#3F3D56"/>
<path d="M200.147 383.158H196.762C196.589 383.158 196.448 383.299 196.448 383.473V385.252C196.448 385.426 196.589 385.566 196.762 385.566H200.147C200.321 385.566 200.461 385.426 200.461 385.252V383.473C200.461 383.299 200.321 383.158 200.147 383.158Z" fill="#3F3D56"/>
<path d="M208.174 383.158H204.789C204.616 383.158 204.475 383.299 204.475 383.473V385.252C204.475 385.426 204.616 385.566 204.789 385.566H208.174C208.348 385.566 208.489 385.426 208.489 385.252V383.473C208.489 383.299 208.348 383.158 208.174 383.158Z" fill="#3F3D56"/>
<path d="M216.202 383.158H212.817C212.644 383.158 212.503 383.299 212.503 383.473V385.252C212.503 385.426 212.644 385.566 212.817 385.566H216.202C216.376 385.566 216.516 385.426 216.516 385.252V383.473C216.516 383.299 216.376 383.158 216.202 383.158Z" fill="#3F3D56"/>
<path d="M224.23 383.158H220.845C220.671 383.158 220.531 383.299 220.531 383.473V385.252C220.531 385.426 220.671 385.566 220.845 385.566H224.23C224.403 385.566 224.544 385.426 224.544 385.252V383.473C224.544 383.299 224.403 383.158 224.23 383.158Z" fill="#3F3D56"/>
<path d="M232.258 383.158H228.873C228.699 383.158 228.558 383.299 228.558 383.473V385.252C228.558 385.426 228.699 385.566 228.873 385.566H232.258C232.431 385.566 232.572 385.426 232.572 385.252V383.473C232.572 383.299 232.431 383.158 232.258 383.158Z" fill="#3F3D56"/>
<path d="M240.285 383.158H236.9C236.726 383.158 236.586 383.299 236.586 383.473V385.252C236.586 385.426 236.726 385.566 236.9 385.566H240.285C240.458 385.566 240.599 385.426 240.599 385.252V383.473C240.599 383.299 240.458 383.158 240.285 383.158Z" fill="#3F3D56"/>
<path d="M248.313 383.158H244.928C244.754 383.158 244.614 383.299 244.614 383.473V385.252C244.614 385.426 244.754 385.566 244.928 385.566H248.313C248.486 385.566 248.627 385.426 248.627 385.252V383.473C248.627 383.299 248.486 383.158 248.313 383.158Z" fill="#3F3D56"/>
<path d="M256.34 383.158H252.956C252.782 383.158 252.641 383.299 252.641 383.473V385.252C252.641 385.426 252.782 385.566 252.956 385.566H256.34C256.514 385.566 256.655 385.426 256.655 385.252V383.473C256.655 383.299 256.514 383.158 256.34 383.158Z" fill="#3F3D56"/>
<path d="M264.368 383.158H260.983C260.809 383.158 260.669 383.299 260.669 383.473V385.252C260.669 385.426 260.809 385.566 260.983 385.566H264.368C264.541 385.566 264.682 385.426 264.682 385.252V383.473C264.682 383.299 264.541 383.158 264.368 383.158Z" fill="#3F3D56"/>
<path d="M272.396 383.158H269.011C268.837 383.158 268.696 383.299 268.696 383.473V385.252C268.696 385.426 268.837 385.566 269.011 385.566H272.396C272.569 385.566 272.71 385.426 272.71 385.252V383.473C272.71 383.299 272.569 383.158 272.396 383.158Z" fill="#3F3D56"/>
<path d="M280.423 383.158H277.039C276.865 383.158 276.724 383.299 276.724 383.473V385.252C276.724 385.426 276.865 385.566 277.039 385.566H280.423C280.597 385.566 280.738 385.426 280.738 385.252V383.473C280.738 383.299 280.597 383.158 280.423 383.158Z" fill="#3F3D56"/>
<path d="M288.451 383.158H285.067C284.893 383.158 284.752 383.299 284.752 383.473V385.252C284.752 385.426 284.893 385.566 285.067 385.566H288.451C288.625 385.566 288.766 385.426 288.766 385.252V383.473C288.766 383.299 288.625 383.158 288.451 383.158Z" fill="#3F3D56"/>
<path d="M296.478 383.158H293.094C292.92 383.158 292.779 383.299 292.779 383.473V385.252C292.779 385.426 292.92 385.566 293.094 385.566H296.478C296.652 385.566 296.793 385.426 296.793 385.252V383.473C296.793 383.299 296.652 383.158 296.478 383.158Z" fill="#3F3D56"/>
<path d="M175.969 387.172H172.584C172.41 387.172 172.27 387.312 172.27 387.486V389.265C172.27 389.439 172.41 389.58 172.584 389.58H175.969C176.142 389.58 176.283 389.439 176.283 389.265V387.486C176.283 387.312 176.142 387.172 175.969 387.172Z" fill="#3F3D56"/>
<path d="M183.996 387.172H180.612C180.438 387.172 180.297 387.312 180.297 387.486V389.265C180.297 389.439 180.438 389.58 180.612 389.58H183.996C184.17 389.58 184.311 389.439 184.311 389.265V387.486C184.311 387.312 184.17 387.172 183.996 387.172Z" fill="#3F3D56"/>
<path d="M192.024 387.172H188.64C188.466 387.172 188.325 387.312 188.325 387.486V389.265C188.325 389.439 188.466 389.58 188.64 389.58H192.024C192.198 389.58 192.339 389.439 192.339 389.265V387.486C192.339 387.312 192.198 387.172 192.024 387.172Z" fill="#3F3D56"/>
<path d="M200.052 387.172H196.668C196.494 387.172 196.353 387.312 196.353 387.486V389.265C196.353 389.439 196.494 389.58 196.668 389.58H200.052C200.226 389.58 200.367 389.439 200.367 389.265V387.486C200.367 387.312 200.226 387.172 200.052 387.172Z" fill="#3F3D56"/>
<path d="M208.079 387.172H204.695C204.521 387.172 204.38 387.312 204.38 387.486V389.265C204.38 389.439 204.521 389.58 204.695 389.58H208.079C208.253 389.58 208.394 389.439 208.394 389.265V387.486C208.394 387.312 208.253 387.172 208.079 387.172Z" fill="#3F3D56"/>
<path d="M216.107 387.172H212.723C212.549 387.172 212.408 387.312 212.408 387.486V389.265C212.408 389.439 212.549 389.58 212.723 389.58H216.107C216.281 389.58 216.422 389.439 216.422 389.265V387.486C216.422 387.312 216.281 387.172 216.107 387.172Z" fill="#3F3D56"/>
<path d="M224.135 387.172H220.75C220.577 387.172 220.436 387.312 220.436 387.486V389.265C220.436 389.439 220.577 389.58 220.75 389.58H224.135C224.309 389.58 224.45 389.439 224.45 389.265V387.486C224.45 387.312 224.309 387.172 224.135 387.172Z" fill="#3F3D56"/>
<path d="M232.162 387.172H228.778C228.604 387.172 228.463 387.312 228.463 387.486V389.265C228.463 389.439 228.604 389.58 228.778 389.58H232.162C232.336 389.58 232.477 389.439 232.477 389.265V387.486C232.477 387.312 232.336 387.172 232.162 387.172Z" fill="#3F3D56"/>
<path d="M240.19 387.172H236.805C236.632 387.172 236.491 387.312 236.491 387.486V389.265C236.491 389.439 236.632 389.58 236.805 389.58H240.19C240.364 389.58 240.505 389.439 240.505 389.265V387.486C240.505 387.312 240.364 387.172 240.19 387.172Z" fill="#3F3D56"/>
<path d="M248.218 387.172H244.833C244.66 387.172 244.519 387.312 244.519 387.486V389.265C244.519 389.439 244.66 389.58 244.833 389.58H248.218C248.392 389.58 248.532 389.439 248.532 389.265V387.486C248.532 387.312 248.392 387.172 248.218 387.172Z" fill="#3F3D56"/>
<path d="M256.245 387.172H252.861C252.687 387.172 252.546 387.312 252.546 387.486V389.265C252.546 389.439 252.687 389.58 252.861 389.58H256.245C256.419 389.58 256.56 389.439 256.56 389.265V387.486C256.56 387.312 256.419 387.172 256.245 387.172Z" fill="#3F3D56"/>
<path d="M264.273 387.172H260.888C260.715 387.172 260.574 387.312 260.574 387.486V389.265C260.574 389.439 260.715 389.58 260.888 389.58H264.273C264.447 389.58 264.587 389.439 264.587 389.265V387.486C264.587 387.312 264.447 387.172 264.273 387.172Z" fill="#3F3D56"/>
<path d="M272.301 387.172H268.916C268.742 387.172 268.602 387.312 268.602 387.486V389.265C268.602 389.439 268.742 389.58 268.916 389.58H272.301C272.474 389.58 272.615 389.439 272.615 389.265V387.486C272.615 387.312 272.474 387.172 272.301 387.172Z" fill="#3F3D56"/>
<path d="M280.329 387.172H276.944C276.77 387.172 276.63 387.312 276.63 387.486V389.265C276.63 389.439 276.77 389.58 276.944 389.58H280.329C280.502 389.58 280.643 389.439 280.643 389.265V387.486C280.643 387.312 280.502 387.172 280.329 387.172Z" fill="#3F3D56"/>
<path d="M288.356 387.172H284.971C284.798 387.172 284.657 387.312 284.657 387.486V389.265C284.657 389.439 284.798 389.58 284.971 389.58H288.356C288.53 389.58 288.67 389.439 288.67 389.265V387.486C288.67 387.312 288.53 387.172 288.356 387.172Z" fill="#3F3D56"/>
<path d="M296.384 387.172H292.999C292.825 387.172 292.685 387.312 292.685 387.486V389.265C292.685 389.439 292.825 389.58 292.999 389.58H296.384C296.557 389.58 296.698 389.439 296.698 389.265V387.486C296.698 387.312 296.557 387.172 296.384 387.172Z" fill="#3F3D56"/>
<path d="M242.599 391.988H211.117C210.944 391.988 210.803 392.129 210.803 392.303V394.082C210.803 394.256 210.944 394.397 211.117 394.397H242.599C242.773 394.397 242.913 394.256 242.913 394.082V392.303C242.913 392.129 242.773 391.988 242.599 391.988Z" fill="#3F3D56"/>
<path d="M331.396 198.024H126.431C126.215 198.024 126.008 197.938 125.855 197.785C125.702 197.632 125.616 197.425 125.616 197.209C125.616 196.993 125.702 196.785 125.855 196.632C126.008 196.48 126.215 196.394 126.431 196.394H331.396C331.613 196.394 331.82 196.48 331.973 196.632C332.126 196.785 332.212 196.993 332.212 197.209C332.212 197.425 332.126 197.632 331.973 197.785C331.82 197.938 331.613 198.024 331.396 198.024Z" fill="#3F3D56"/>
<path d="M140.384 192.232C143.022 192.232 145.16 190.046 145.16 187.349C145.16 184.652 143.022 182.466 140.384 182.466C137.746 182.466 135.607 184.652 135.607 187.349C135.607 190.046 137.746 192.232 140.384 192.232Z" fill="#3F3D56"/>
<path d="M156.885 192.232C159.523 192.232 161.662 190.046 161.662 187.349C161.662 184.652 159.523 182.466 156.885 182.466C154.247 182.466 152.109 184.652 152.109 187.349C152.109 190.046 154.247 192.232 156.885 192.232Z" fill="#3F3D56"/>
<path d="M173.387 192.232C176.025 192.232 178.164 190.046 178.164 187.349C178.164 184.652 176.025 182.466 173.387 182.466C170.749 182.466 168.61 184.652 168.61 187.349C168.61 190.046 170.749 192.232 173.387 192.232Z" fill="#3F3D56"/>
<path d="M321.46 183.674H309.739C309.508 183.68 309.288 183.776 309.127 183.942C308.966 184.107 308.876 184.329 308.876 184.561C308.876 184.792 308.966 185.014 309.127 185.18C309.288 185.345 309.508 185.442 309.739 185.448H321.46C321.578 185.451 321.696 185.43 321.807 185.387C321.917 185.344 322.018 185.279 322.103 185.197C322.188 185.114 322.255 185.015 322.301 184.906C322.347 184.797 322.371 184.679 322.371 184.561C322.371 184.442 322.347 184.325 322.301 184.216C322.255 184.106 322.188 184.007 322.103 183.925C322.018 183.842 321.917 183.777 321.807 183.734C321.696 183.691 321.578 183.67 321.46 183.674Z" fill="#3F3D56"/>
<path d="M321.46 187.005H309.739C309.508 187.011 309.288 187.107 309.127 187.273C308.966 187.439 308.876 187.661 308.876 187.892C308.876 188.123 308.966 188.345 309.127 188.511C309.288 188.676 309.508 188.773 309.739 188.779H321.46C321.695 188.779 321.921 188.685 322.087 188.519C322.253 188.353 322.347 188.127 322.347 187.892C322.347 187.657 322.253 187.431 322.087 187.265C321.921 187.098 321.695 187.005 321.46 187.005Z" fill="#3F3D56"/>
<path d="M321.46 190.337H309.739C309.508 190.343 309.288 190.439 309.127 190.605C308.966 190.77 308.876 190.992 308.876 191.224C308.876 191.455 308.966 191.677 309.127 191.843C309.288 192.008 309.508 192.104 309.739 192.111H321.46C321.578 192.114 321.696 192.093 321.807 192.05C321.917 192.007 322.018 191.942 322.103 191.859C322.188 191.777 322.255 191.678 322.301 191.569C322.347 191.459 322.371 191.342 322.371 191.224C322.371 191.105 322.347 190.988 322.301 190.878C322.255 190.769 322.188 190.67 322.103 190.588C322.018 190.505 321.917 190.44 321.807 190.397C321.696 190.354 321.578 190.333 321.46 190.337Z" fill="#3F3D56"/>
<path d="M144.561 216.967H139.438C138.413 216.967 137.582 217.798 137.582 218.823V219.735C137.582 220.76 138.413 221.591 139.438 221.591H144.561C145.586 221.591 146.417 220.76 146.417 219.735V218.823C146.417 217.798 145.586 216.967 144.561 216.967Z" fill="#E6E6E6"/>
<path d="M192.727 216.967H187.603C186.578 216.967 185.747 217.798 185.747 218.823V219.735C185.747 220.76 186.578 221.591 187.603 221.591H192.727C193.752 221.591 194.583 220.76 194.583 219.735V218.823C194.583 217.798 193.752 216.967 192.727 216.967Z" fill="#E6E6E6"/>
<path d="M206.373 216.967H201.25C200.225 216.967 199.394 217.798 199.394 218.823V219.735C199.394 220.76 200.225 221.591 201.25 221.591H206.373C207.399 221.591 208.229 220.76 208.229 219.735V218.823C208.229 217.798 207.399 216.967 206.373 216.967Z" fill="#E6E6E6"/>
<path d="M179.626 216.581H152.539C151.514 216.581 150.683 217.412 150.683 218.437V219.349C150.683 220.374 151.514 221.205 152.539 221.205H179.626C180.651 221.205 181.482 220.374 181.482 219.349V218.437C181.482 217.412 180.651 216.581 179.626 216.581Z" fill="#E6E6E6"/>
<path d="M243.847 216.581H216.76C215.735 216.581 214.904 217.412 214.904 218.437V219.349C214.904 220.374 215.735 221.205 216.76 221.205H243.847C244.872 221.205 245.703 220.374 245.703 219.349V218.437C245.703 217.412 244.872 216.581 243.847 216.581Z" fill="#E6E6E6"/>
<path d="M157.405 227.403H152.281C151.256 227.403 150.425 228.234 150.425 229.259V230.171C150.425 231.196 151.256 232.027 152.281 232.027H157.405C158.43 232.027 159.261 231.196 159.261 230.171V229.259C159.261 228.234 158.43 227.403 157.405 227.403Z" fill="#E6E6E6"/>
<path d="M205.571 227.403H200.448C199.423 227.403 198.592 228.234 198.592 229.259V230.171C198.592 231.196 199.423 232.027 200.448 232.027H205.571C206.596 232.027 207.427 231.196 207.427 230.171V229.259C207.427 228.234 206.596 227.403 205.571 227.403Z" fill="#E6E6E6"/>
<path d="M219.218 227.403H214.095C213.07 227.403 212.239 228.234 212.239 229.259V230.171C212.239 231.196 213.07 232.027 214.095 232.027H219.218C220.243 232.027 221.074 231.196 221.074 230.171V229.259C221.074 228.234 220.243 227.403 219.218 227.403Z" fill="#E6E6E6"/>
<path d="M192.47 227.017H165.383C164.358 227.017 163.527 227.848 163.527 228.873V229.785C163.527 230.81 164.358 231.641 165.383 231.641H192.47C193.495 231.641 194.326 230.81 194.326 229.785V228.873C194.326 227.848 193.495 227.017 192.47 227.017Z" fill="#E6E6E6"/>
<path d="M256.691 227.017H229.604C228.579 227.017 227.748 227.848 227.748 228.873V229.785C227.748 230.81 228.579 231.641 229.604 231.641H256.691C257.716 231.641 258.547 230.81 258.547 229.785V228.873C258.547 227.848 257.716 227.017 256.691 227.017Z" fill="#E6E6E6"/>
<path d="M170.249 237.839H165.126C164.101 237.839 163.27 238.67 163.27 239.695V240.607C163.27 241.632 164.101 242.463 165.126 242.463H170.249C171.274 242.463 172.105 241.632 172.105 240.607V239.695C172.105 238.67 171.274 237.839 170.249 237.839Z" fill="#E6E6E6"/>
<path d="M218.415 237.839H213.292C212.267 237.839 211.436 238.67 211.436 239.695V240.607C211.436 241.632 212.267 242.463 213.292 242.463H218.415C219.44 242.463 220.271 241.632 220.271 240.607V239.695C220.271 238.67 219.44 237.839 218.415 237.839Z" fill="#E6E6E6"/>
<path d="M232.062 237.839H226.939C225.914 237.839 225.083 238.67 225.083 239.695V240.607C225.083 241.632 225.914 242.463 226.939 242.463H232.062C233.087 242.463 233.918 241.632 233.918 240.607V239.695C233.918 238.67 233.087 237.839 232.062 237.839Z" fill="#E6E6E6"/>
<path d="M205.314 237.453H178.227C177.202 237.453 176.371 238.284 176.371 239.309V240.221C176.371 241.246 177.202 242.077 178.227 242.077H205.314C206.339 242.077 207.17 241.246 207.17 240.221V239.309C207.17 238.284 206.339 237.453 205.314 237.453Z" fill="#E6E6E6"/>
<path d="M269.535 237.453H242.449C241.424 237.453 240.593 238.284 240.593 239.309V240.221C240.593 241.246 241.424 242.077 242.449 242.077H269.535C270.561 242.077 271.391 241.246 271.391 240.221V239.309C271.391 238.284 270.561 237.453 269.535 237.453Z" fill="#E6E6E6"/>
<path d="M183.094 248.275H177.97C176.945 248.275 176.114 249.106 176.114 250.131V251.043C176.114 252.068 176.945 252.899 177.97 252.899H183.094C184.119 252.899 184.95 252.068 184.95 251.043V250.131C184.95 249.106 184.119 248.275 183.094 248.275Z" fill="#E6E6E6"/>
<path d="M231.259 248.275H226.136C225.111 248.275 224.28 249.106 224.28 250.131V251.043C224.28 252.068 225.111 252.899 226.136 252.899H231.259C232.284 252.899 233.115 252.068 233.115 251.043V250.131C233.115 249.106 232.284 248.275 231.259 248.275Z" fill="#E6E6E6"/>
<path d="M244.907 248.275H239.783C238.758 248.275 237.927 249.106 237.927 250.131V251.043C237.927 252.068 238.758 252.899 239.783 252.899H244.907C245.932 252.899 246.763 252.068 246.763 251.043V250.131C246.763 249.106 245.932 248.275 244.907 248.275Z" fill="#E6E6E6"/>
<path d="M218.158 247.889H191.072C190.047 247.889 189.216 248.72 189.216 249.745V250.657C189.216 251.682 190.047 252.513 191.072 252.513H218.158C219.184 252.513 220.014 251.682 220.014 250.657V249.745C220.014 248.72 219.184 247.889 218.158 247.889Z" fill="#E6E6E6"/>
<path d="M192.727 289.773H187.603C186.578 289.773 185.747 290.604 185.747 291.629V292.541C185.747 293.566 186.578 294.397 187.603 294.397H192.727C193.752 294.397 194.583 293.566 194.583 292.541V291.629C194.583 290.604 193.752 289.773 192.727 289.773Z" fill="#E6E6E6"/>
<path d="M206.373 289.773H201.25C200.225 289.773 199.394 290.604 199.394 291.629V292.541C199.394 293.566 200.225 294.397 201.25 294.397H206.373C207.399 294.397 208.229 293.566 208.229 292.541V291.629C208.229 290.604 207.399 289.773 206.373 289.773Z" fill="#E6E6E6"/>
<path d="M243.847 290.158H216.76C215.735 290.158 214.904 290.989 214.904 292.014V292.926C214.904 293.951 215.735 294.782 216.76 294.782H243.847C244.872 294.782 245.703 293.951 245.703 292.926V292.014C245.703 290.989 244.872 290.158 243.847 290.158Z" fill="#E6E6E6"/>
<path d="M144.561 289.773H139.438C138.413 289.773 137.582 290.604 137.582 291.629V292.541C137.582 293.566 138.413 294.397 139.438 294.397H144.561C145.586 294.397 146.417 293.566 146.417 292.541V291.629C146.417 290.604 145.586 289.773 144.561 289.773Z" fill="#E6E6E6"/>
<path d="M179.626 290.158H152.539C151.514 290.158 150.683 290.989 150.683 292.014V292.926C150.683 293.951 151.514 294.782 152.539 294.782H179.626C180.651 294.782 181.482 293.951 181.482 292.926V292.014C181.482 290.989 180.651 290.158 179.626 290.158Z" fill="#E6E6E6"/>
<path d="M157.405 279.337H152.281C151.256 279.337 150.425 280.168 150.425 281.193V282.104C150.425 283.129 151.256 283.96 152.281 283.96H157.405C158.43 283.96 159.261 283.129 159.261 282.104V281.193C159.261 280.168 158.43 279.337 157.405 279.337Z" fill="#E6E6E6"/>
<path d="M205.571 279.337H200.448C199.423 279.337 198.592 280.168 198.592 281.193V282.104C198.592 283.129 199.423 283.96 200.448 283.96H205.571C206.596 283.96 207.427 283.129 207.427 282.104V281.193C207.427 280.168 206.596 279.337 205.571 279.337Z" fill="#E6E6E6"/>
<path d="M219.218 279.337H214.095C213.07 279.337 212.239 280.168 212.239 281.193V282.104C212.239 283.129 213.07 283.96 214.095 283.96H219.218C220.243 283.96 221.074 283.129 221.074 282.104V281.193C221.074 280.168 220.243 279.337 219.218 279.337Z" fill="#E6E6E6"/>
<path d="M192.47 279.722H165.383C164.358 279.722 163.527 280.553 163.527 281.578V282.49C163.527 283.515 164.358 284.346 165.383 284.346H192.47C193.495 284.346 194.326 283.515 194.326 282.49V281.578C194.326 280.553 193.495 279.722 192.47 279.722Z" fill="#E6E6E6"/>
<path d="M170.249 268.9H165.126C164.101 268.9 163.27 269.731 163.27 270.756V271.668C163.27 272.693 164.101 273.524 165.126 273.524H170.249C171.274 273.524 172.105 272.693 172.105 271.668V270.756C172.105 269.731 171.274 268.9 170.249 268.9Z" fill="#E6E6E6"/>
<path d="M218.415 268.9H213.292C212.267 268.9 211.436 269.731 211.436 270.756V271.668C211.436 272.693 212.267 273.524 213.292 273.524H218.415C219.44 273.524 220.271 272.693 220.271 271.668V270.756C220.271 269.731 219.44 268.9 218.415 268.9Z" fill="#E6E6E6"/>
<path d="M232.062 268.9H226.939C225.914 268.9 225.083 269.731 225.083 270.756V271.668C225.083 272.693 225.914 273.524 226.939 273.524H232.062C233.087 273.524 233.918 272.693 233.918 271.668V270.756C233.918 269.731 233.087 268.9 232.062 268.9Z" fill="#E6E6E6"/>
<path d="M205.314 269.286H178.227C177.202 269.286 176.371 270.117 176.371 271.142V272.054C176.371 273.079 177.202 273.91 178.227 273.91H205.314C206.339 273.91 207.17 273.079 207.17 272.054V271.142C207.17 270.117 206.339 269.286 205.314 269.286Z" fill="#E6E6E6"/>
<path d="M183.094 258.465H177.97C176.945 258.465 176.114 259.296 176.114 260.321V261.233C176.114 262.258 176.945 263.089 177.97 263.089H183.094C184.119 263.089 184.95 262.258 184.95 261.233V260.321C184.95 259.296 184.119 258.465 183.094 258.465Z" fill="#E6E6E6"/>
<path d="M231.259 258.465H226.136C225.111 258.465 224.28 259.296 224.28 260.321V261.233C224.28 262.258 225.111 263.089 226.136 263.089H231.259C232.284 263.089 233.115 262.258 233.115 261.233V260.321C233.115 259.296 232.284 258.465 231.259 258.465Z" fill="#E6E6E6"/>
<path d="M244.907 258.465H239.783C238.758 258.465 237.927 259.296 237.927 260.321V261.233C237.927 262.258 238.758 263.089 239.783 263.089H244.907C245.932 263.089 246.763 262.258 246.763 261.233V260.321C246.763 259.296 245.932 258.465 244.907 258.465Z" fill="#E6E6E6"/>
<path d="M218.158 258.85H191.072C190.047 258.85 189.216 259.681 189.216 260.706V261.618C189.216 262.643 190.047 263.474 191.072 263.474H218.158C219.184 263.474 220.014 262.643 220.014 261.618V260.706C220.014 259.681 219.184 258.85 218.158 258.85Z" fill="#E6E6E6"/>
<path d="M214.415 268.701C214.415 268.701 227.699 287.348 222.954 292.397C218.21 297.447 258.547 297.572 258.547 297.572C258.547 297.572 252.489 270.445 254.271 264.202L214.415 268.701Z" fill="#FFB9B9"/>
<path d="M333.854 440.535C333.364 440.784 332.867 441.033 332.377 441.274C319.693 447.616 309.546 451.22 295.667 455.17C294.495 442.088 293.363 419.085 292.263 404.828C291.974 401.128 291.683 398.021 291.404 395.829C291.332 394.664 291.094 393.515 290.695 392.417L290.743 395.829L290.864 404.828L291.563 456.294C274.297 460.862 256.561 463.418 238.708 463.912C237.777 463.936 236.862 463.952 235.979 463.968C235.666 463.975 235.361 463.984 235.056 463.984C234.052 463.992 233.058 464 232.053 464C213.24 464.014 194.494 461.742 176.229 457.233C176.622 444.284 177.016 421.542 177.393 404.828C177.473 401.561 177.546 398.518 177.625 395.829C177.778 390.081 177.939 385.939 178.091 384.551C177.956 384.797 177.851 385.059 177.778 385.33C177.035 388.791 176.528 392.299 176.261 395.83C175.98 398.519 175.699 401.562 175.418 404.829C173.925 422.193 172.368 445.802 170.762 455.813C161.206 453.204 151.828 449.978 142.689 446.156C137.874 444.148 133.144 441.983 128.499 439.661C129.382 433.88 130.303 427.403 131.252 420.683C131.991 415.473 132.753 410.118 133.533 404.83C134.736 396.657 135.973 388.646 137.225 381.589C139.055 371.282 140.934 362.997 142.796 359.192C144.563 355.58 146.329 352.016 148.038 348.604C148.633 347.408 149.227 346.228 149.805 345.08C149.941 344.807 150.078 344.542 150.214 344.277C151.442 341.861 152.631 339.549 153.762 337.382C154.733 335.527 155.657 333.777 156.533 332.162C158.653 328.244 160.451 325.121 161.784 323.147C167.355 314.696 175.649 308.405 185.289 305.317L185.53 305.253L185.698 305.325L202.115 300.284L204.515 299.545L206.127 299.048L211.81 294.721L214.903 292.368L217.803 290.161L223.471 285.85L258.559 288.009L265.39 304.458L280.691 310.053L280.956 309.933L281.188 309.837L281.429 309.901C291.068 312.991 299.361 319.282 304.934 327.731C305.689 328.862 306.604 330.355 307.641 332.162C308.524 333.695 309.487 335.445 310.531 337.382C312.013 340.135 313.637 343.242 315.355 346.606C315.732 347.344 316.118 348.099 316.503 348.861C317.218 350.274 317.943 351.716 318.679 353.188C320.389 356.6 322.155 360.164 323.921 363.785C325.454 366.924 327.003 373.378 328.529 381.59C329.789 388.414 331.042 396.457 332.253 404.83C333.843 415.684 332.149 428.68 333.586 438.667C333.67 439.299 333.766 439.917 333.854 440.535Z" fill="#3F3D56"/>
<path d="M232.55 272.721C255.088 272.721 273.36 254.449 273.36 231.91C273.36 209.372 255.088 191.1 232.55 191.1C210.011 191.1 191.739 209.372 191.739 231.91C191.739 254.449 210.011 272.721 232.55 272.721Z" fill="#FFB9B9"/>
<path d="M299.85 177.829C299.043 175.945 297.97 174.187 296.663 172.609C290.465 165.039 279.194 161.708 267.627 170.666C265.4 170.169 263.079 170.303 260.924 171.053C259.907 171.421 258.953 171.947 258.099 172.61C256.346 173.977 254.98 175.776 254.133 177.83C253.68 178.915 253.382 180.058 253.25 181.226C250.39 179.74 247.364 178.6 244.235 177.83C236.557 175.921 228.528 175.921 220.85 177.83C218.39 178.453 216.021 179.392 213.802 180.624C210.045 182.791 207.885 185.529 207.5 188.571C202.082 188.876 196.446 191.729 192.247 196.398C191.774 196.92 191.316 197.466 190.891 198.028C187.36 202.647 185.462 208.308 185.495 214.122V215.142H186.515C189.308 215.139 192.076 215.679 194.663 216.731C196.34 217.405 197.928 218.281 199.392 219.34C200.35 220.019 201.255 220.771 202.098 221.588C204.054 223.481 205.71 225.66 207.012 228.05C210.347 234.091 211.503 241.095 210.287 247.887C210.008 249.459 209.6 251.006 209.067 252.511C208.308 254.657 207.309 256.711 206.088 258.633C206.04 258.705 206 258.777 205.951 258.85C205.413 259.709 204.9 260.584 204.418 261.467C204.057 262.125 203.72 262.799 203.406 263.473C202.492 265.35 201.719 267.293 201.095 269.286C199.977 272.81 199.319 276.463 199.136 280.155C199.08 281.134 199.064 282.113 199.096 283.093C199.143 285.618 199.42 288.133 199.923 290.607C199.995 290.944 200.067 291.274 200.139 291.611L200.725 294.172L202.114 300.281L203.077 304.487L203.968 308.389L205.285 306.502C205.736 305.858 206.866 303.885 208.384 301.089C209.387 299.267 210.551 297.094 211.811 294.715C213.569 291.383 215.496 287.667 217.383 283.958C218.145 282.457 218.9 280.964 219.63 279.503C221.011 276.732 222.312 274.06 223.427 271.684C224.455 269.493 225.33 267.55 225.98 265.992C226.18 267.011 226.349 268.047 226.478 269.09C226.622 270.15 226.726 271.225 226.782 272.302C226.798 272.462 226.806 272.631 226.815 272.791L226.847 273.45L226.855 273.643L227.705 273.756C232.613 274.281 237.561 274.319 242.476 273.868H242.484C248.995 273.377 255.383 271.829 261.397 269.284C264.812 267.802 268.002 265.845 270.87 263.471C272.209 262.362 273.459 261.149 274.608 259.843C274.897 259.514 275.178 259.185 275.451 258.848C277.04 256.895 278.4 254.767 279.505 252.506C280.245 251.013 280.873 249.468 281.384 247.882C284.466 238.546 284.289 226.897 280.854 213.058C281.782 212.879 282.671 212.536 283.479 212.046C285.999 210.529 287.749 207.518 288.295 203.842L289.162 204.074C292.235 202.643 294.973 200.58 297.198 198.022C297.638 197.5 298.051 196.956 298.434 196.392C302.362 190.616 302.394 183.681 299.85 177.829Z" fill="#090814"/>
<path opacity="0.2" d="M165.683 381.553L172.502 355.226L178.524 377.941L165.683 381.553Z" fill="black"/>
<path d="M347.196 364.4C344.756 398.02 347.284 412.823 333.814 440.543C321.558 446.542 308.792 451.438 295.667 455.172C294.302 455.558 292.935 455.933 291.565 456.296C274.3 460.864 256.564 463.421 238.711 463.914C237.78 463.938 236.865 463.954 235.982 463.97C235.669 463.979 235.364 463.986 235.058 463.986C234.055 463.994 233.061 464.003 232.056 464.003C213.242 464.017 194.497 461.744 176.232 457.236C174.401 456.786 172.579 456.312 170.765 455.815C161.208 453.206 151.831 449.98 142.692 446.158C137.875 444.151 133.144 441.986 128.499 439.663C127.447 439.133 126.395 438.604 125.36 438.058C120.037 428.698 117.011 417.314 116.947 403.635C120.632 380.062 339.056 344.074 347.196 364.4Z" fill="#090814"/>
<path opacity="0.2" d="M347.19 370.158C347.315 368.076 347.455 365.926 347.617 363.687C339.477 343.362 121.052 379.347 117.367 402.919C117.378 405.08 117.47 407.177 117.625 409.224C126.549 385.961 334.055 351.757 347.19 370.158Z" fill="black"/>
<path d="M130.984 274.668C131.037 273.94 130.934 273.21 130.681 272.525C130.428 271.84 130.031 271.218 129.518 270.7C129.004 270.181 128.385 269.779 127.703 269.52C127.021 269.26 126.291 269.15 125.563 269.197C125.291 269.207 125.021 269.241 124.756 269.298L92.8366 276.509C92.1233 276.682 91.4541 277.002 90.8721 277.449C90.2902 277.897 89.8084 278.461 89.4578 279.106C88.9896 279.123 88.5247 279.191 88.0709 279.308C87.066 279.521 86.1135 279.932 85.2688 280.517C84.4241 281.102 83.7039 281.848 83.1502 282.714C82.5965 283.579 82.2203 284.546 82.0433 285.558C81.8663 286.57 81.8922 287.607 82.1194 288.609C82.3465 289.611 82.7705 290.558 83.3667 291.394C83.9628 292.231 84.7192 292.941 85.592 293.483C86.4648 294.025 87.4366 294.388 88.4509 294.551C89.4652 294.715 90.5019 294.675 91.5006 294.434C92.6424 294.169 93.7105 293.652 94.6268 292.921L105.443 323.379C105.983 324.334 106.818 325.088 107.822 325.529C108.827 325.969 109.947 326.073 111.015 325.825L131.766 321.135C132.826 320.887 133.78 320.309 134.491 319.485C135.203 318.66 135.634 317.632 135.724 316.547L130.984 274.668ZM91.0212 292.267C90.311 292.429 89.5757 292.45 88.8575 292.328C88.1393 292.206 87.4521 291.944 86.8352 291.556C85.5893 290.774 84.7052 289.528 84.3776 288.094C84.2154 287.384 84.1946 286.648 84.3165 285.93C84.4384 285.212 84.7006 284.525 85.0881 283.908C85.4755 283.291 85.9807 282.756 86.5748 282.335C87.1689 281.913 87.8402 281.613 88.5504 281.45C88.6509 281.425 88.7521 281.45 88.8533 281.425C88.8455 282.344 89.0803 283.248 89.5338 284.047L93.492 290.954C92.8032 291.608 91.949 292.062 91.0212 292.267Z" fill="#090814"/>
<path d="M125.563 269.197C125.866 273.231 118.958 277.87 109.704 279.711C101.207 281.451 93.5931 280.24 91.4497 277.064C91.8804 276.808 92.3483 276.621 92.8366 276.509L124.756 269.298C125.021 269.241 125.292 269.207 125.563 269.197Z" fill="#3F3D56"/>
<path d="M103.487 371.606L121.416 362.641L106.475 322.299L102.537 301.955C102.026 299.312 100.829 296.85 99.0681 294.814C97.3067 292.778 95.0419 291.24 92.4999 290.354C89.958 289.468 87.2279 289.264 84.5826 289.763C81.9373 290.262 79.4693 291.447 77.4253 293.199C74.3969 295.796 72.4957 299.467 72.123 303.439C71.7503 307.411 72.9351 311.372 75.4275 314.487L90.0435 332.757L103.487 371.606Z" fill="#FFB9B9"/>
<path d="M121.416 355.17L97.512 367.123L115.653 423.963C116.956 428.045 119.291 431.721 122.433 434.635C125.574 437.549 129.415 439.601 133.583 440.594C138.723 441.818 144.119 441.373 148.988 439.325C153.858 437.276 157.949 433.73 160.668 429.2L208.771 346.744C212.181 341.062 213.233 334.272 211.704 327.825C210.174 321.378 206.185 315.785 200.587 312.239C197.576 310.333 194.198 309.081 190.672 308.566C187.145 308.052 183.55 308.285 180.12 309.252C176.69 310.218 173.502 311.896 170.764 314.176C168.025 316.457 165.797 319.288 164.225 322.486L134.863 385.051L121.416 355.17Z" fill="#3F3D56"/>
<path d="M114.023 303.8C113.979 303.8 113.935 303.793 113.894 303.778L108.674 301.982C108.611 301.96 108.554 301.923 108.509 301.874C108.464 301.825 108.431 301.766 108.415 301.701C108.399 301.636 108.399 301.569 108.415 301.504C108.431 301.439 108.464 301.38 108.509 301.331L112.39 297.105C112.425 297.063 112.468 297.029 112.516 297.005C112.565 296.981 112.618 296.966 112.672 296.963C112.726 296.959 112.78 296.967 112.831 296.985C112.882 297.003 112.929 297.031 112.969 297.068C113.008 297.104 113.04 297.149 113.063 297.198C113.085 297.247 113.097 297.301 113.098 297.355C113.1 297.409 113.09 297.463 113.07 297.513C113.05 297.563 113.019 297.609 112.981 297.647L109.514 301.422L114.154 303.019C114.244 303.05 114.32 303.112 114.368 303.193C114.417 303.275 114.435 303.371 114.419 303.464C114.404 303.558 114.356 303.643 114.284 303.704C114.212 303.766 114.12 303.8 114.025 303.8H114.023Z" fill="#6C63FF"/>
<path d="M121.176 302.336C121.096 302.336 121.018 302.312 120.952 302.267C120.886 302.223 120.834 302.159 120.804 302.085C120.775 302.011 120.767 301.93 120.784 301.852C120.8 301.774 120.84 301.702 120.897 301.647L124.425 298.236L119.685 296.283C119.587 296.242 119.509 296.164 119.468 296.066C119.427 295.968 119.427 295.858 119.467 295.759C119.508 295.661 119.586 295.583 119.684 295.542C119.782 295.501 119.893 295.501 119.991 295.541L125.297 297.728C125.358 297.753 125.413 297.793 125.456 297.844C125.498 297.896 125.527 297.957 125.54 298.022C125.553 298.088 125.549 298.156 125.529 298.219C125.509 298.283 125.473 298.341 125.425 298.387L121.457 302.223C121.382 302.296 121.282 302.336 121.178 302.336H121.176Z" fill="#6C63FF"/>
<path d="M115.118 306.256C115.078 306.256 115.038 306.25 115 306.238C114.949 306.223 114.902 306.198 114.862 306.164C114.821 306.13 114.788 306.089 114.763 306.043C114.738 305.996 114.723 305.945 114.718 305.893C114.713 305.84 114.719 305.787 114.734 305.737L118.438 293.695C118.454 293.645 118.479 293.598 118.513 293.558C118.546 293.517 118.588 293.483 118.634 293.459C118.681 293.434 118.732 293.419 118.785 293.414C118.837 293.409 118.89 293.414 118.94 293.43C118.991 293.445 119.038 293.471 119.078 293.504C119.119 293.538 119.152 293.579 119.177 293.626C119.202 293.673 119.217 293.724 119.222 293.776C119.227 293.829 119.221 293.882 119.206 293.932L115.502 305.973C115.476 306.055 115.425 306.127 115.356 306.178C115.287 306.229 115.203 306.256 115.118 306.256Z" fill="#6C63FF"/>
</g>
<defs>
<clipPath id="clip0_9_319">
<rect width="464" height="464" fill="white" transform="translate(0.0552368)"/>
</clipPath>
</defs>
</svg>
