<svg height="73" viewBox="0 0 73 73" width="73" xmlns="http://www.w3.org/2000/svg"><g fill="none"><rect fill="#fff" height="71" rx="14" stroke="#2d1c11" stroke-width="2" width="71" x="1" y="1"/><g transform="translate(14 10)"><path d="m45.405649 16.7496394c0-5.8421935-4.7524579-10.59465142-10.5946514-10.59465142-.8174026 0-1.6345025.0907104-2.4519051.30260343-1.6648738-3.81407452-5.4486778-6.45759141-9.656268-6.45759141-4.2075901 0-7.9913942 2.64351689-9.656268 6.45759141-.8174026-.21189303-1.6345025-.30260343-2.4519051-.30260343-5.84219347 0-10.5946514 4.75245792-10.5946514 10.59465142 0 1.5739616.36324519 3.0874833 1.05936424 4.5405649-.69611905 1.4528799-1.05936424 2.9664015-1.05936424 4.5405649 0 5.8421935 4.75245793 10.5946515 10.5946514 10.5946515 1.1805469 0 2.3309243-.2118931 3.4508294-.63578 2.0886598 2.1189303 5.2973257 3.6628232 8.6573437 3.6628232 3.3296467 0 6.568583-1.543792 8.6573438-3.6628232 1.120006.423786 2.2702824.63578 3.4508293.63578 5.8421935 0 10.5946514-4.752458 10.5946514-10.5946515 0-1.5741634-.3632452-3.087685-1.0593642-4.5405649.696119-1.4530816 1.0593642-2.9666033 1.0593642-4.5405649z" fill="#7fe881"/><path d="m44.3462848 21.2902043c.696119 1.4528799 1.0593642 2.9664015 1.0593642 4.5405649 0 5.8421935-4.7524579 10.5946515-10.5946514 10.5946515-1.1805469 0-2.3309242-.2118931-3.4508293-.63578-2.0886599 2.1189303-5.3275962 3.6628232-8.6573438 3.6628232v-39.4524639c4.2075902 0 7.9913942 2.64351689 9.656268 6.45759141.8174026-.21189303 1.6345025-.30260343 2.4519051-.30260343 5.8421935 0 10.5946514 4.75245792 10.5946514 10.59465142 0 1.5739616-.3632452 3.0874833-1.0593642 4.5405649z" fill="#5bc980"/><path d="m13.881456 27.344185h8.561708v3.026712h-8.561708z" fill="#714c2f" transform="matrix(.70710678 .70710678 -.70710678 .70710678 25.72498 -4.390514)"/><path d="m25.731299 15.833939h3.027067v10.914657h-3.027067z" fill="#523522" transform="matrix(.83206568 .55467711 -.55467711 .83206568 16.385121 -11.536551)"/><path d="m6.054087 24.317248h3.027043v3.027043h-3.027043z" fill="#d92c48"/><path d="m33.297476 12.209075h3.027043v3.027043h-3.027043z" fill="#0d1e33"/><path d="m10.5946514 21.2902043c-2.50376835 0-4.54056486-2.0367965-4.54056486-4.5405649s2.03679651-4.5405649 4.54056486-4.5405649c2.5037684 0 4.5405649 2.0367965 4.5405649 4.5405649s-2.0367965 4.5405649-4.5405649 4.5405649z" fill="#f23051"/><path d="m34.8109976 30.3713341c-2.5037684 0-4.5405649-2.0367965-4.5405649-4.5405649s2.0367965-4.5405649 4.5405649-4.5405649 4.5405649 2.0367965 4.5405649 4.5405649-2.0367965 4.5405649-4.5405649 4.5405649z" fill="#d92c48"/><path d="m22.7028245 6.15498798c-2.5125468 0-4.5405649 2.02801809-4.5405649 4.54056492 0 2.512345 2.0280181 4.5405649 4.5405649 4.5405649s4.5405649-2.0282199 4.5405649-4.5405649c0-2.51254683-2.0280181-4.54056492-4.5405649-4.54056492z" fill="#0d1e33"/><path d="m22.7028245 15.2361178v-9.08112982c2.5125468 0 4.5405649 2.02801809 4.5405649 4.54056492 0 2.512345-2.0280181 4.5405649-4.5405649 4.5405649z" fill="#0d1e33"/><path d="m30.9062127 51.6615385h-16.4067763l5.1763449-5.1763449v-28.2220325h6.0540865v28.2220325z" fill="#895d3c"/><path d="m30.9062127 51.6615385h-8.2033882v-33.3983774h3.0270433v28.2220325z" fill="#714c2f"/></g></g></svg>