<?xml version="1.0" encoding="UTF-8"?>
<svg id="Layer_1" data-name="Layer 1" xmlns="http://www.w3.org/2000/svg" xmlns:xlink="http://www.w3.org/1999/xlink" viewBox="0 0 1024 1024">
  <defs>
    <style>
      .cls-1 {
        clip-path: url(#clippath);
      }

      .cls-2 {
        fill: none;
      }

      .cls-2, .cls-3, .cls-4, .cls-5 {
        stroke-width: 0px;
      }

      .cls-6 {
        clip-path: url(#clippath-1);
      }

      .cls-3 {
        fill: #000;
      }

      .cls-4 {
        fill: #f8cd0e;
      }

      .cls-5 {
        fill: #fff;
      }
    </style>
    <clipPath id="clippath">
      <rect class="cls-2" x="0" y="15.52" width="1024" height="992.97" rx="345.38" ry="345.38"/>
    </clipPath>
    <clipPath id="clippath-1">
      <rect class="cls-2" y="15.52" width="1024" height="992.97"/>
    </clipPath>
  </defs>
  <g class="cls-1">
    <g class="cls-6">
      <g>
        <path class="cls-5" d="M532.72,351.87v-142.04c0-28.09-8.4-55.55-24.12-78.91-15.73-23.36-38.09-41.56-64.24-52.31-26.16-10.75-54.94-13.56-82.71-8.08-27.77,5.48-53.27,19.01-73.29,38.87-20.02,19.86-33.65,45.17-39.18,72.72-5.52,27.55-2.69,56.11,8.15,82.07,10.84,25.95,29.18,48.14,52.72,63.74,23.54,15.61,51.22,23.94,79.53,23.94h143.15Z"/>
        <path class="cls-5" d="M824.3,311.31c16.77-16.46,29.18-36.79,36.12-59.16,6.94-22.37,8.21-46.1,3.68-69.07-4.52-22.97-14.7-44.48-29.63-62.61-14.92-18.13-34.14-32.31-55.92-41.29-21.78-8.98-45.47-12.48-68.95-10.19-23.48,2.29-46.02,10.31-65.63,23.33-19.6,13.02-35.66,30.65-46.73,51.32-11.08,20.67-16.84,43.73-16.76,67.14v142.03h143.14c18.71,0,37.23-3.67,54.51-10.8,17.28-7.12,32.97-17.56,46.17-30.71h0Z"/>
        <path class="cls-4" d="M147.04,677.67c0,132.73,83.02,237.67,202.16,268.29V416.63c-116.9,40.25-202.16,145.35-202.16,261.03Z"/>
        <path class="cls-4" d="M687.83,955.9c42.22-3.53,83.29-15.52,120.71-35.23,37.43-19.72,70.43-46.76,97.03-79.5-29.15,7.59-59.79,7.5-88.89-.28-29.1-7.78-55.64-22.97-77-44.07l33.4-33.46c23.36,23.08,54.9,36.18,87.87,36.47,32.97.3,64.74-12.23,88.52-34.9,10.56-27.9,15.96-57.47,15.9-87.27.97-36.44-5.5-72.7-19.02-106.6-13.52-33.9-33.8-64.73-59.64-90.65-25.84-25.92-56.69-46.38-90.71-60.17-34.02-13.78-70.49-20.59-107.22-20.03h-108.32v555.68h107.36ZM757.18,568.46c9.91,0,19.61,2.92,27.85,8.39,8.24,5.47,14.66,13.25,18.45,22.34,3.79,9.09,4.77,19.1,2.82,28.74-1.95,9.65-6.74,18.5-13.76,25.45-7.02,6.95-15.97,11.67-25.69,13.57-9.73,1.9-19.81.89-28.96-2.89-9.15-3.79-16.97-10.18-22.45-18.38-5.49-8.2-8.4-17.83-8.37-27.66,0-6.52,1.3-12.98,3.82-19,2.52-6.02,6.21-11.49,10.87-16.09,4.65-4.6,10.18-8.25,16.25-10.73,6.08-2.48,12.59-3.75,19.16-3.73Z"/>
        <path class="cls-4" d="M424.6,400.18c-9.29.78-18.53,2.04-27.67,3.79v550.63c8.43.79,17.18,1.26,25.92,1.26h109.9V400.02h-108.16v.16Z"/>
        <path class="cls-3" d="M757.18,667.5c9.91,0,19.6-2.91,27.84-8.38,8.24-5.46,14.66-13.22,18.45-22.31,3.79-9.08,4.78-19.08,2.85-28.72-1.93-9.64-6.7-18.5-13.71-25.45-7.01-6.95-15.93-11.69-25.65-13.6-9.72-1.92-19.79-.94-28.95,2.83-9.15,3.76-16.98,10.13-22.48,18.31-5.5,8.17-8.44,17.79-8.44,27.62,0,13.18,5.28,25.83,14.67,35.15,9.39,9.33,22.14,14.56,35.42,14.56h0Z"/>
        <path class="cls-3" d="M814.27,377.12c16.06-8.66,30.78-19.56,43.74-32.35,19.27-19.19,34.17-42.25,43.69-67.64,9.52-25.39,13.44-52.51,11.49-79.53-1.94-27.02-9.71-53.31-22.77-77.1-13.06-23.79-31.11-44.52-52.93-60.8-21.82-16.28-46.92-27.72-73.57-33.55-26.66-5.83-54.27-5.92-80.97-.26-26.7,5.66-51.86,16.94-73.79,33.07-21.93,16.13-40.12,36.75-53.34,60.45-14.42-26.4-34.95-49.02-59.91-65.99-24.96-16.98-53.63-27.82-83.64-31.64-30.01-3.82-60.52-.5-88.98,9.68-28.47,10.18-54.09,26.93-74.75,48.86-20.66,21.94-35.76,48.43-44.07,77.3-8.31,28.87-9.58,59.29-3.71,88.74,5.87,29.45,18.71,57.1,37.47,80.66,18.76,23.56,42.89,42.35,70.41,54.84-114.52,48.92-198.18,154.66-208.04,272.39H10.9v47.35h89.54c4.45,81.78,40.45,158.72,100.54,214.87,60.09,56.15,139.64,87.2,222.18,86.72h267.53c177.82-13.89,323.35-159.87,323.35-325.58.78-64.16-17.83-127.08-53.44-180.64-35.61-53.56-86.58-95.3-146.33-119.84h0ZM349.2,946.38c-119.13-31.56-202.16-136.04-202.16-268.29,0-115.68,85.73-220.94,202.16-261.03v529.32ZM532.75,955.84h-109.59c-8.75,0-17.49,0-25.93-1.26V403.96c9.15-1.75,18.39-3.01,27.68-3.79h108.15l-.32,555.68ZM532.75,352.5h-143.15c-37.84-.07-74.12-14.93-101-41.35-16.77-16.46-29.18-36.79-36.12-59.16-6.95-22.37-8.21-46.1-3.68-69.07,4.53-22.97,14.71-44.48,29.63-62.61,14.93-18.13,34.14-32.31,55.93-41.29,21.78-8.98,45.47-12.48,68.95-10.19,23.48,2.29,46.02,10.31,65.62,23.33,19.6,13.02,35.66,30.65,46.74,51.32,11.08,20.67,16.84,43.73,16.76,67.14l.32,141.88ZM580.46,210.47c0-28.09,8.4-55.55,24.12-78.91,15.73-23.36,38.09-41.56,64.24-52.31,26.16-10.75,54.94-13.56,82.71-8.08,27.77,5.48,53.27,19.01,73.29,38.87,20.02,19.86,33.65,45.17,39.17,72.73,5.53,27.55,2.69,56.11-8.14,82.06-10.84,25.95-29.18,48.14-52.72,63.74-23.54,15.61-51.22,23.93-79.53,23.93h-143.15v-142.03ZM773.07,763.31l-33.4,33.46c21.36,21.09,47.9,36.29,77,44.07,29.1,7.78,59.74,7.87,88.89.28-26.64,32.65-59.66,59.6-97.09,79.24-37.43,19.63-78.47,31.55-120.65,35.02h-107.36V400.01h108.32c36.83-.7,73.41,6.02,107.56,19.76,34.14,13.73,65.11,34.19,91.06,60.14,25.94,25.95,46.31,56.85,59.88,90.83,13.56,33.98,20.05,70.34,19.05,106.87.05,29.81-5.34,59.38-15.9,87.28-23.82,22.95-55.8,35.66-89,35.36-33.2-.29-64.94-13.57-88.34-36.94h0Z"/>
      </g>
    </g>
  </g>
</svg>